<svg width="150" height="40" viewBox="0 0 150 40" fill="none" xmlns="http://www.w3.org/2000/svg">
<path fill-rule="evenodd" clip-rule="evenodd" d="M30.4779 8.98432C31.813 8.98432 33.4712 7.22269 33.4712 5.00423V4.99826C33.4712 3.16795 32.0255 1.47798 29.3764 1.47798C24.1831 1.47798 17.9361 7.00771 12.2847 13.5228C7.34283 19.1928 2.57152 25.887 2.57152 30.7121C2.57152 33.0381 3.7419 34.5519 6.31912 34.5519C12.5332 34.5519 20.0553 28.0727 23.4796 23.9134C26.8351 19.8646 32.3757 15.6009 36.7938 15.6009C38.5568 15.6009 40.0086 16.6609 40.0086 18.4524C40.0086 19.9691 39.371 21.5546 38.6287 22.9968C38.5619 23.1023 38.5256 23.2243 38.5239 23.3491C38.5239 23.4566 38.6287 23.7372 39.6165 23.2804C43.0767 21.6561 45.8335 19.5362 48.7639 15.9532H52.4367L42.5828 28.3862C40.0774 31.5571 40.4695 32.9664 41.3855 32.9664C42.3014 32.9664 44.6332 31.9811 47.3511 29.3386C49.1185 27.5942 50.7694 25.736 52.293 23.7761C52.3289 23.7761 52.3289 23.7372 52.3289 23.7372C56.0736 19.0883 58.546 15.9532 58.546 15.9532H62.569L52.9096 28.0697C51.4639 29.9388 50.8652 31.2436 50.8652 32.0527C50.8652 32.7007 51.2454 32.9485 51.9219 32.9485C52.5983 32.9485 53.9723 32.7096 57.4295 29.9627C59.5562 28.2428 61.4974 26.3065 63.2215 24.1851L71.6027 13.69H66.3794L67.5049 12.4956H72.5935C74.7547 9.78751 76.4848 7.60189 76.4848 7.60189H80.412C80.412 7.60189 78.7447 9.71585 76.5207 12.4956H84.2164C86.3776 9.78751 88.1077 7.60189 88.1077 7.60189H92.0289C92.0289 7.60189 90.3617 9.71585 88.1376 12.4956H93.8009L92.7024 13.69H87.1828L75.8472 28.0936C74.3985 29.9627 73.7998 31.2675 73.7998 32.0766C73.7998 32.7246 74.2219 32.9724 74.8594 32.9724C76.6943 32.9724 80.7921 30.954 85.74 26.3439C89.2601 23.0207 93.5465 18.3837 98.24 12.5703L99.2308 13.3794C98.0757 14.5642 97.5632 16.2312 97.8539 17.8582L98.2789 21.0231C98.3833 21.9153 98.4423 22.8122 98.4555 23.7104C98.4555 27.2307 97.3929 28.9206 96.5817 30.1896C95.2078 32.3006 92.3432 34.2025 89.766 34.2025C87.5779 34.2025 85.9166 32.5842 85.9166 30.7509C85.9166 28.849 87.2606 27.8666 88.6375 27.8666C89.1267 27.8463 89.603 28.026 89.9561 28.3642C90.3093 28.7024 90.5088 29.1698 90.5083 29.6581C90.5083 30.7479 89.7301 31.3839 88.9548 31.3839C88.8336 31.3839 88.7378 31.3635 88.6559 31.346C88.5234 31.3177 88.4275 31.2972 88.3202 31.3839C88.1827 31.5107 88.1054 31.6898 88.1077 31.8766C88.1077 32.5484 88.7782 32.9336 89.5205 32.9336C92.5917 32.9336 94.0045 29.3416 94.8516 26.7708C95.6571 24.2886 96.0859 21.7001 96.1237 19.0913C96.1483 18.3245 96.2182 17.5598 96.3333 16.8012C93.3696 20.5758 90.0978 24.0992 86.5512 27.3352C81.9625 31.5243 77.7629 34.1339 74.7606 34.1339C71.7584 34.1339 71.4381 31.2436 72.396 28.7056C67.5917 32.9007 64.8648 34.1667 63.0689 34.1667C60.0756 34.1667 59.6026 31.5511 60.5934 28.9087C56.1813 32.9634 53.5592 34.1577 51.7632 34.1577C48.9405 34.1577 48.303 31.8676 49.2219 29.2252C45.5911 33.0321 42.478 34.1577 41.1011 34.1577C39.7242 34.1577 38.6616 33.0082 38.6616 31.5153C38.6616 29.6163 39.5446 27.7502 41.9841 24.6479L44.2112 21.9607L44.1393 21.9249C42.023 23.4767 39.6445 24.6367 37.1171 25.3496C33.0911 30.5957 28.3258 34.2264 24.9733 34.2264C22.5457 34.2264 20.7827 32.5126 20.7827 30.0463C20.7811 29.5817 20.8405 29.119 20.9593 28.6698C15.7659 33.6113 10.2493 36 6.05871 36C2.35002 36 0.230774 33.3546 0.230774 29.058C0.230774 24.7614 2.66432 18.8286 8.52817 12.2598C16.7896 2.92312 24.3477 0 29.2208 0C33.0312 0 34.7643 2.71112 34.7643 5.00124C34.7643 8.03185 31.9387 10.6743 29.4333 10.6743C27.9366 10.6743 26.7393 9.72481 26.7393 8.45583C26.7189 7.96791 26.8991 7.49282 27.2382 7.14052C27.5772 6.78823 28.0457 6.58927 28.5353 6.5897C28.9495 6.58067 29.3495 6.74062 29.6427 7.03256C29.936 7.32451 30.0971 7.72316 30.0888 8.13635C30.0888 8.28529 30.0682 8.38507 30.051 8.4682C30.0289 8.57505 30.0125 8.6544 30.0529 8.77532C30.1464 8.91636 30.3088 8.99623 30.4779 8.98432ZM63.2395 32.9724C62.6049 32.9724 62.1828 32.7246 62.1828 32.0766C62.1828 31.2675 62.7815 29.9627 64.2303 28.0936L75.5658 13.69H83.2287C82.1243 15.0767 81.1022 16.3619 80.1664 17.5386C77.7513 20.5753 75.9109 22.8894 74.7157 24.3613C72.9579 26.3873 71.0203 28.2511 68.9267 29.9298C65.4635 32.6738 63.91 32.9724 63.2395 32.9724ZM35.4498 25.1884C34.6896 26.1391 33.875 27.0453 33.0103 27.9025C29.095 31.8467 26.4819 32.9037 24.9972 32.9037C23.8658 32.9037 23.336 32.1602 23.336 31.4108C23.336 29.049 25.8803 25.4392 30.0469 21.3367C33.9382 17.5327 36.1233 16.8997 37.0722 16.8997C37.4965 16.8654 37.9149 17.0159 38.2196 17.3124C38.5243 17.6089 38.6855 18.0224 38.6616 18.4464C38.6014 19.4521 38.3377 20.4353 37.8863 21.3367C36.689 21.5128 34.7793 22.6743 34.7793 24.0239C34.7646 24.5072 35.0239 24.9575 35.4498 25.1884Z" fill="#282829"/>
<rect x="108.231" width="1" height="40" fill="#A39161"/>
<path fill-rule="evenodd" clip-rule="evenodd" d="M133.663 4H131.805L132.732 4.92744L133.663 4ZM131.239 6.41607L132.178 5.47977L131.239 4.54347V6.41607ZM130.164 18.3458H128.46V17.3681H130.164V18.3458ZM138.103 20.3601V19.0251H127.367V20.3601H138.103ZM143.928 22.5625C144.518 22.3523 145.218 22.1028 145.975 22.1028L145.972 22.1116C147.981 22.1116 149.231 23.745 149.231 25.4936C149.196 26.1884 149.066 26.8752 148.843 27.5345L147.821 30.751H147.797C147.046 30.718 146.391 30.2342 146.141 29.5282C146.452 29.0084 147.015 28.6899 147.622 28.6894C147.426 28.3314 147.112 28.0518 146.733 27.8978C146.802 27.3236 146.538 26.7601 146.052 26.4446C145.564 26.7714 145.294 27.3377 145.347 27.9214C144.979 28.082 144.669 28.351 144.458 28.6923C145.057 28.6725 145.618 28.9867 145.913 29.5075C145.528 30.1426 144.731 30.4586 143.957 30.4586C142.953 30.4586 142.476 29.8708 142.138 29.1679C141.795 29.8679 141.25 30.4586 140.245 30.4586C139.481 30.4586 138.681 30.1426 138.296 29.5075C138.59 28.9862 139.151 28.6718 139.751 28.6923C139.539 28.3516 139.229 28.0828 138.862 27.9214C138.913 27.3382 138.643 26.7732 138.157 26.4446C137.67 26.7603 137.405 27.3232 137.472 27.8978C137.094 28.0518 136.78 28.3314 136.584 28.6894C137.191 28.6905 137.753 29.0088 138.065 29.5282C137.813 30.2347 137.157 30.7184 136.406 30.751L135.422 27.5256C135.198 26.8665 135.067 26.1797 135.031 25.4847C135.031 23.7361 136.284 22.1028 138.29 22.1028C139.044 22.1028 139.742 22.3514 140.332 22.5615C140.667 22.6808 140.968 22.7876 141.223 22.8294C141.13 22.6883 141.083 22.5225 141.087 22.3538C141.087 21.778 141.555 21.3112 142.132 21.3112C142.71 21.3112 143.178 21.778 143.178 22.3538C143.181 22.5223 143.133 22.6877 143.042 22.8294C143.296 22.7878 143.594 22.6814 143.928 22.5625ZM140.29 26.9113H143.99L142.121 28.6274L140.29 26.9113ZM143.326 25.1509C145.021 25.3341 146.487 25.7417 147.687 26.6691C147.831 26.277 147.909 25.8638 147.918 25.4463C147.918 24.2442 147.166 23.4083 145.939 23.4083C145.377 23.4083 144.886 23.5556 144.354 23.7151L144.354 23.7151C143.727 23.9033 143.044 24.1083 142.121 24.1083C141.198 24.1083 140.515 23.9035 139.888 23.7155C139.355 23.5558 138.863 23.4083 138.299 23.4083C137.12 23.4083 136.323 24.2442 136.323 25.4463C136.331 25.8633 136.407 26.2763 136.548 26.6691C137.754 25.7417 139.232 25.3341 140.915 25.1509C141.717 25.0705 142.525 25.0705 143.326 25.1509ZM127.015 17.1052C127.765 17.0691 128.421 16.5869 128.677 15.8824C128.362 15.3652 127.802 15.0476 127.195 15.0436C127.389 14.6838 127.704 14.4035 128.084 14.252C128.017 13.6781 128.281 13.1157 128.765 12.7989C129.255 13.1242 129.525 13.6919 129.468 14.2757C129.836 14.4354 130.147 14.7046 130.356 15.0466C129.757 15.0283 129.196 15.3419 128.899 15.8618C129.287 16.4968 130.084 16.8128 130.854 16.8128C131.855 16.8128 132.403 16.2221 132.741 15.5221C133.082 16.2251 133.559 16.8128 134.56 16.8128C135.333 16.8128 136.13 16.4968 136.515 15.8618C136.22 15.3429 135.662 15.0292 135.064 15.0466C135.273 14.7042 135.584 14.4349 135.953 14.2757C135.895 13.6919 136.165 13.1242 136.655 12.7989C137.14 13.1148 137.404 13.6779 137.336 14.252C137.715 14.4061 138.029 14.6857 138.225 15.0436C137.618 15.0453 137.056 15.3635 136.744 15.8824C136.997 16.5874 137.652 17.0702 138.403 17.1052H138.429L139.457 13.8858C139.682 13.227 139.813 12.5399 139.845 11.8448C139.845 10.0992 138.592 8.46589 136.587 8.46589C135.835 8.46589 135.139 8.71429 134.55 8.9246C134.211 9.04583 133.907 9.15439 133.648 9.19543C133.741 9.05352 133.79 8.88677 133.787 8.71694C133.757 8.16186 133.297 7.72691 132.74 7.72691C132.182 7.72691 131.722 8.16186 131.692 8.71694C131.69 8.88677 131.738 9.05352 131.832 9.19543C131.574 9.15448 131.272 9.04628 130.933 8.92535C130.345 8.71489 129.648 8.46589 128.896 8.46589C126.899 8.46589 125.637 10.0992 125.637 11.8448C125.671 12.5395 125.801 13.2262 126.022 13.8858L127.015 17.1052ZM130.895 13.2744L132.744 14.9786L134.596 13.2744H130.895ZM128.922 9.75957C129.487 9.75957 129.98 9.90789 130.513 10.0683C131.14 10.257 131.823 10.4625 132.744 10.4625C133.665 10.4625 134.347 10.2573 134.975 10.0686C135.508 9.90808 136.002 9.75957 136.569 9.75957C137.754 9.75957 138.545 10.5984 138.545 11.8005C138.535 12.2177 138.458 12.6306 138.317 13.0233C137.111 12.0988 135.636 11.6883 133.956 11.5081C133.152 11.4247 132.342 11.4247 131.538 11.5081C129.859 11.6883 128.377 12.0988 127.174 13.0233C127.033 12.6306 126.956 12.2177 126.946 11.8005C126.946 10.5984 127.743 9.75957 128.922 9.75957ZM142.704 19.1167L143.643 18.1804V20.053L142.704 19.1167ZM144.719 31.9679H146.425V30.9903H144.719V31.9679ZM131.458 17.755L132.732 16.9487L134.009 17.755L132.732 18.5732L131.458 17.755ZM143.066 17.6369H141.205L142.138 18.5614L143.066 17.6369ZM143.066 20.5905H141.205L142.138 19.6631L143.066 20.5905ZM134.231 4.53461L133.289 5.47091L134.231 6.40721V4.53461ZM141.581 19.1167L140.642 20.053V18.1804L141.581 19.1167ZM131.808 6.95658H133.665L132.735 6.02914L131.808 6.95658ZM147.507 32.662V34H136.77V32.662H147.507ZM127.172 22.1176C126.416 22.1176 125.718 22.3663 125.128 22.5764C124.794 22.6957 124.494 22.8024 124.239 22.8441C124.332 22.7034 124.381 22.5375 124.378 22.3686C124.348 21.8135 123.888 21.3786 123.331 21.3786C122.773 21.3786 122.313 21.8135 122.283 22.3686C122.279 22.5377 122.328 22.704 122.423 22.8441C122.167 22.8024 121.866 22.6954 121.53 22.576C120.94 22.366 120.241 22.1176 119.49 22.1176C117.487 22.1176 116.231 23.7509 116.231 25.4995C116.264 26.1942 116.394 26.881 116.616 27.5404L117.599 30.751C118.35 30.7168 119.006 30.2337 119.259 29.5282C118.946 29.0093 118.384 28.6911 117.777 28.6894C117.972 28.3305 118.286 28.0506 118.666 27.8978C118.597 27.3243 118.86 26.7613 119.344 26.4446C119.835 26.7697 120.105 27.3372 120.05 27.9214C120.42 28.079 120.731 28.3487 120.938 28.6923C120.34 28.6736 119.781 28.9877 119.487 29.5075C119.872 30.1426 120.672 30.4586 121.439 30.4586C122.44 30.4586 122.982 29.8679 123.323 29.1679C123.67 29.8708 124.144 30.4586 125.145 30.4586C125.921 30.4586 126.718 30.1426 127.1 29.5075C126.807 28.9867 126.247 28.6723 125.649 28.6923C125.859 28.351 126.169 28.082 126.538 27.9214C126.483 27.3382 126.752 26.7717 127.24 26.4446C127.727 26.7591 127.992 27.3233 127.921 27.8978C128.3 28.0518 128.614 28.3314 128.81 28.6894C128.203 28.6911 127.641 29.0093 127.329 29.5282C127.581 30.2342 128.237 30.7176 128.988 30.751H129.011L130.033 27.5345C130.256 26.8752 130.387 26.1884 130.421 25.4935C130.421 23.745 129.168 22.1116 127.163 22.1116L127.172 22.1176ZM121.483 26.9113L123.311 28.6274L125.181 26.9113H121.483ZM128.887 26.6691C127.681 25.7417 126.203 25.3341 124.52 25.1509C123.719 25.0705 122.912 25.0705 122.111 25.1509C120.426 25.3341 118.947 25.7417 117.745 26.6691C117.608 26.2717 117.537 25.8547 117.534 25.4345C117.534 24.2324 118.325 23.3965 119.51 23.3965C120.075 23.3965 120.568 23.5443 121.1 23.7041C121.726 23.892 122.407 24.0965 123.326 24.0965C124.246 24.0965 124.931 23.8916 125.56 23.7035C126.093 23.5439 126.586 23.3965 127.148 23.3965C128.371 23.3965 129.127 24.2324 129.127 25.4345C129.118 25.8515 129.042 26.2645 128.902 26.6573L128.887 26.6691ZM127.607 31.9738H125.901V30.9962H127.607V31.9738ZM142.138 30.5886L140.862 31.4067L142.138 32.2219L143.412 31.4067L142.138 30.5886ZM122.055 31.4067L123.326 30.5886L124.603 31.4067L123.326 32.2219L122.055 31.4067ZM137.863 31.9738H139.564V30.9962H137.863V31.9738ZM124.259 20.6053H122.402L123.326 19.6779L124.259 20.6053ZM135.31 18.3458H137.016V17.3681H135.31V18.3458ZM122.402 17.6369H124.259L123.326 18.5614L122.402 17.6369ZM124.828 18.1804L123.892 19.1167L124.828 20.053V18.1804ZM128.7 34H117.964V32.662H128.7V34ZM119.054 31.9827H120.761V31.005H119.054V31.9827ZM121.839 20.0677V18.1951L122.778 19.1314L121.839 20.0677Z" fill="#A39161"/>
</svg>
