<svg width="246" height="44" viewBox="0 0 246 44" fill="none" xmlns="http://www.w3.org/2000/svg">
<path fill-rule="evenodd" clip-rule="evenodd" d="M60.6154 31H66.7106C73.7444 31 76.6154 27.8624 76.6154 21.9877C76.6154 16.0624 73.1592 13 66.7106 13H60.6154V31ZM64.2703 15.7383H66.2689C70.5533 15.7383 72.8832 17.6554 72.8832 22.0123C72.8832 25.9711 71.26 28.3605 66.2248 28.2607H64.2703V15.7383Z" fill="#1C62B7"/>
<path fill-rule="evenodd" clip-rule="evenodd" d="M78.6154 24.4137C78.6154 21.305 80.3262 18 85.2573 18C90.1772 18 91.8656 21.5742 91.586 25.2466L82.1376 25.2709C82.1711 27.2786 82.9203 28.919 85.2796 28.919C86.6773 28.919 87.8737 28.0133 87.8737 26.6178H91.2953C91.0941 30.0695 88.1309 31.0248 84.7876 30.9995C80.5833 30.8771 78.6154 28.1114 78.6154 24.4137ZM85.1454 20.0805C83.211 20.0805 82.3724 21.5742 82.2718 23.1903H87.8737C87.952 21.4021 87.024 20.0805 85.1454 20.0805Z" fill="#1C62B7"/>
<path d="M105.615 31.5962H102.218L102.196 29.5262C101.626 31.1663 100.045 32 98.11 32C95.8089 32 93.6369 30.5863 93.6154 27.2038V19H97.0563V26.7238C97.0347 28.5413 97.7337 29.5513 99.4218 29.5763C100.949 29.5763 102.196 28.6926 102.196 26.245V19H105.615V31.5962" fill="#1C62B7"/>
<path d="M110.229 18.6153V16.6978L113.485 15V18.6153H116.594V20.968H113.485V26.8156C113.485 28.004 113.896 28.6839 115.119 28.7321C115.583 28.7321 116.004 28.7802 116.615 28.6107V30.6977C115.024 30.9163 113.19 31.3285 111.673 30.5272C110.524 29.9215 110.229 28.8534 110.229 27.1556V20.968H107.615V18.6153H110.229" fill="#1C62B7"/>
<path d="M130.208 25.3667C130.786 26.4441 130.763 27.8634 130.049 28.8427C128.815 30.6039 126.13 31.045 124.057 30.9965C121.112 30.8245 118.495 30.1154 118.62 26.8356H122.199C122.165 28.2549 123.117 28.7689 124.476 28.8174C125.79 28.8174 127.104 28.4016 127.104 27.2757C127.104 26.3703 126.187 25.9788 125.009 25.7339C123.661 25.4649 122.698 25.3424 121.191 24.7789C119.99 24.2408 118.801 23.3354 118.801 21.6227C118.801 20.2023 119.99 19.126 121.542 18.5382C122.584 18.1224 123.876 18 124.986 18C127.478 18 130.185 18.8073 130.027 21.744H126.662C126.662 21.304 126.56 20.8144 126.164 20.521C125.428 19.909 123.162 19.8351 122.46 20.8386C121.667 22.5524 124.114 22.6748 126.821 23.3596C128.532 23.7269 129.687 24.3874 130.208 25.3667" fill="#1C62B7"/>
<path d="M139.007 18C141.762 18 144.615 19.222 144.615 22.5699L141.228 22.5446C141.228 20.9813 140.346 20.0279 138.68 20.1017C138.245 20.1259 137.788 20.2723 137.417 20.4683C136.372 21.055 136.045 22.6921 136.045 24.3292C136.045 26.0632 136.481 27.7498 137.265 28.3597C137.788 28.8485 138.724 28.996 139.53 28.8485C140.869 28.6294 141.272 27.3579 141.305 26.2591L144.615 26.2349C144.658 29.7282 141.708 31.0482 138.626 30.9987C134.51 30.8522 132.615 28.2628 132.615 24.4261C132.615 20.542 134.913 18 139.007 18" fill="#1C62B7"/>
<path d="M146.615 13H150.062V20.5285C150.967 18.9334 152.314 18.2358 154.134 18.2358C156.439 18.2358 158.615 19.9556 158.615 22.4235V31H155.211V23.3705C155.211 21.6754 154.49 20.5543 152.863 20.5543C151.344 20.5543 150.041 21.5507 150.041 23.8445V31H146.615V13" fill="#1C62B7"/>
<path fill-rule="evenodd" clip-rule="evenodd" d="M161.615 24.4137C161.615 21.305 163.326 18 168.257 18C173.177 18 174.866 21.5742 174.586 25.2466L165.138 25.2709C165.171 27.2786 165.92 28.919 168.28 28.919C169.677 28.919 170.874 28.0133 170.874 26.6178H174.295C174.094 30.0695 171.131 31.0248 167.788 30.9995C163.583 30.8771 161.615 28.1114 161.615 24.4137ZM168.145 20.0805C166.2 20.0805 165.372 21.5742 165.272 23.1903H170.874C170.952 21.4021 170.013 20.0805 168.145 20.0805Z" fill="#1C62B7"/>
<path fill-rule="evenodd" clip-rule="evenodd" d="M195.344 30.4758C194.19 30.8493 192.694 31 191.091 31H184.615V13H191.508C194.585 13 197.802 13.9741 197.93 17.4443C198.005 19.6412 196.52 21.0383 194.66 21.6626C196.092 22.0371 197.257 22.4612 198.048 23.8099C198.742 25.0079 198.796 26.6063 198.229 27.9291C197.631 29.1777 196.712 30.0011 195.344 30.4758ZM191.508 15.6963H188.014V20.3645H191.561C193.421 20.3645 194.382 19.5906 194.382 18.0675C194.382 16.6446 193.271 15.6963 191.508 15.6963ZM188.014 23.036L191.86 23.0608C194.158 23.036 195.002 24.4094 195.002 25.5827C195.002 27.1046 194.211 28.3285 191.732 28.3285H188.014V23.036Z" fill="#1C62B7"/>
<path fill-rule="evenodd" clip-rule="evenodd" d="M207.56 18.0003C210.808 17.9761 213.615 19.2248 213.615 21.7223V30.5847H210.577L210.445 28.7977C209.652 30.3884 207.615 31.1473 205.821 30.9763C203.322 30.9024 201.615 29.4827 201.615 27.132C201.615 25.2964 202.661 24.1458 204.015 23.5336C205.512 22.8637 207.421 22.8119 209.085 22.7667C209.49 22.7557 209.88 22.7451 210.247 22.7261C210.423 20.6688 209.575 19.837 207.692 19.837C206.437 19.8613 205.491 20.5464 205.568 21.869H202.177C202.221 19.0042 204.467 18.05 207.56 18.0003ZM205.083 26.9367C205.083 28.1115 205.854 28.7238 207.153 28.8219C210.17 28.7723 210.346 26.6675 210.269 24.6356C210.124 24.6356 209.969 24.6338 209.805 24.6319C207.972 24.6105 205.103 24.5772 205.083 26.9367Z" fill="#1C62B7"/>
<path d="M216.615 18.3295H220.05V20.3613C220.952 18.7105 222.594 18 224.44 18C226.501 18 228.615 19.2184 228.615 22.2651V31H225.181V23.2296C225.202 21.5798 224.408 20.3613 222.841 20.3613C221.295 20.3613 220.029 21.3762 220.029 23.7123V31H216.615V18.3295" fill="#1C62B7"/>
<path fill-rule="evenodd" clip-rule="evenodd" d="M235.966 13H232.615V31H235.966V13ZM236.062 23.8692L241.243 31H245.615L239.892 23.7445L244.754 18.5593H240.754L236.062 23.8692Z" fill="#1C62B7"/>
<path fill-rule="evenodd" clip-rule="evenodd" d="M0.615387 0H44.6154V44H0.615387V0ZM27.3524 10.4214L10.1651 33.3957H17.9324L35.1845 10.4214H27.3524ZM38.4902 37.906H6.7406V6.09512H38.4902V37.906Z" fill="#1C62B7"/>
</svg>
