<svg width="185" height="37" viewBox="0 0 185 37" fill="none" xmlns="http://www.w3.org/2000/svg">
<path fill-rule="evenodd" clip-rule="evenodd" d="M26.1092 0.00186888H36.7316V0C45.1413 0 46.4681 3.05935 46.4681 7.57455C46.4681 11.9459 44.1078 15.1491 35.8458 15.1491H33.0425V22.1443C33.0421 22.6916 33.1428 23.2344 33.3397 23.7459C33.4855 24.1833 33.9284 24.6206 34.6647 24.9121C35.1095 25.0579 35.8458 25.2018 36.8792 25.2018V26.0764H25.371V25.2018C26.4045 25.2018 27.1427 25.0579 27.5837 24.9121C28.3219 24.6206 28.7648 24.329 28.9125 23.7441L28.913 23.7425C29.0604 23.3057 29.2077 22.8694 29.2077 21.2697V0.874634H26.1092V0.00186888ZM7.81725 0.00186888H18.5873V0.872765H15.0458V18.2103C15.0458 24.7645 11.9492 26.6576 6.04748 26.6576C1.17921 26.6576 0 24.7645 0 22.2882C0 21.7051 0.293383 19.9577 2.06315 19.9577C3.83481 19.9577 3.98244 21.2678 3.98244 23.161C3.98244 23.8898 4.42536 25.4915 6.4904 25.4915C9.88229 25.4915 11.3568 24.0356 11.3568 18.6458V0.874634H7.81725V0.00186888ZM18.7349 23.161C19.03 22.7276 19.6201 22.578 20.2103 22.5779C20.8004 22.578 21.2431 22.7239 21.6858 23.161C22.1287 23.5983 22.2763 24.0356 22.2763 24.6187C22.2763 25.198 22.1287 25.6391 21.6858 26.0764C21.2429 26.51 20.7999 26.6558 20.2113 26.6558C19.6207 26.6558 19.1778 26.5119 18.7349 26.0764C18.292 25.6372 18.1443 25.198 18.1443 24.6187C18.1443 24.0356 18.292 23.5983 18.7349 23.161ZM44.4041 22.5779C43.814 22.578 43.3713 22.7276 42.9286 23.161C42.4876 23.5983 42.34 24.0356 42.34 24.6187C42.34 25.198 42.4876 25.6372 42.9286 26.0764C43.3715 26.5119 43.8144 26.6558 44.405 26.6558C44.9956 26.6558 45.5842 26.51 45.8814 26.0764C46.3224 25.6372 46.47 25.198 46.47 24.6187C46.47 24.0356 46.3224 23.5983 45.8795 23.161C45.4368 22.7239 44.996 22.578 44.4041 22.5779ZM35.2552 14.1306H33.0425V1.02041H34.9618C41.3046 1.02041 42.7791 3.64244 42.7791 7.72033C42.7791 11.944 40.273 14.1306 35.2552 14.1306ZM80.2527 21.8509C80.2536 22.4454 80.3533 23.0357 80.5479 23.5983C80.6956 24.1814 81.1385 24.6187 81.5795 24.9102C82.1982 25.1127 82.8471 25.2107 83.4988 25.1999V26.0746H73.1717V25.1999C73.8228 25.2106 74.471 25.1126 75.0891 24.9102C75.6797 24.6187 76.1207 24.3272 76.2683 23.7441L76.2695 23.7395C76.4167 23.158 76.5636 22.5779 76.5636 21.8509V3.78821H76.2683L67.1223 26.0727H66.3841C66.2365 25.7811 56.6476 3.64057 56.6476 3.64057H56.2047V21.122L56.3523 23.0171C56.3523 23.5983 56.5 24.0356 56.7952 24.3272C57.0905 24.7645 57.3858 25.056 57.9763 25.2018C58.1808 25.2018 58.3539 25.2331 58.5396 25.2667C58.7546 25.3056 58.9864 25.3476 59.3032 25.3476V26.2222H51.9251V25.3513C52.5175 25.3513 53.1062 25.3513 53.4015 25.2018C53.8444 25.0579 54.2873 24.7663 54.5826 24.329C54.8778 23.8936 55.0255 23.4563 55.0255 23.0171V0.876503H51.7793V0.00186888H59.3089C59.3089 0.147641 67.8643 19.8138 67.8643 19.8138C67.8643 19.9596 67.8643 19.9596 68.0119 19.9596L68.1596 19.812C68.1596 19.812 76.1245 0.293413 76.2721 0.00186888H83.054V0.874634H80.2527V21.8509ZM94.5622 6.99333C88.9557 6.99333 85.5639 10.6339 85.5639 16.8984C85.5639 26.2203 92.9401 26.8034 94.4146 26.8034C97.5131 26.8034 103.415 24.9102 103.415 16.7545C103.415 10.3442 99.5781 6.99333 94.5622 6.99333ZM89.5463 17.0441C89.5463 23.6002 90.2845 25.6372 94.4146 25.6372C98.1036 25.6372 99.2828 23.3067 99.2828 16.7507C99.2828 12.0898 99.2828 8.15764 94.4146 8.15764C89.8416 8.15764 89.5463 11.9459 89.5463 17.0441ZM117.874 7.28488C114.626 7.28488 113.449 9.17805 112.561 11.217H112.266C112.266 11.217 111.825 8.30341 111.677 7.57455H105.185V8.59496H108.724V21.4136C108.724 22.7237 108.578 23.6002 108.285 24.1795C107.988 24.7645 107.102 25.1999 105.775 25.1999H105.185V26.3661H116.102V25.1999H115.512C114.035 25.1999 113.449 24.9102 113.149 24.3272C112.856 23.7441 112.708 22.8694 112.708 21.5593V14.5679C112.708 12.3813 114.478 9.76114 116.545 9.76114C117.517 9.76114 118.033 10.3794 118.519 10.9616C119.14 11.7046 119.711 12.3888 121.118 11.6543C122.299 10.9254 122.004 7.28488 117.874 7.28488ZM159.18 12.2374V22.434C159.328 23.6002 159.621 24.1795 160.802 24.1795V24.1814C161.541 24.1814 162.279 23.4525 162.279 22.2863H162.869C162.72 25.3457 161.244 26.5119 158.737 26.5119C156.523 26.5119 155.196 24.9084 155.047 23.5964C153.72 24.9102 151.804 26.6558 148.706 26.6558C145.904 26.6558 143.837 24.4711 143.69 22.1406C143.247 16.0219 151.507 15.2949 154.903 15.0033V11.9421C154.903 10.7797 154.607 9.90504 154.164 9.17618C153.722 8.44732 152.69 8.15764 151.361 8.15764C150.332 8.15764 149.442 8.45106 148.855 9.03041C148.41 9.61537 148.119 10.1966 147.967 11.217C147.674 12.5308 147.082 13.1102 146.05 13.1102C145.609 13.1102 145.166 12.9644 144.871 12.6728C144.577 12.5271 144.43 12.0879 144.43 11.5085C144.43 10.1966 145.018 9.32382 146.198 8.44732C147.526 7.42878 149.444 6.98959 152.099 6.98959C154.901 6.98959 156.82 7.42878 157.854 8.44732C158.883 9.46959 159.18 10.4881 159.18 12.2374ZM155.198 22.1424V22.2882L155.05 22.434C153.281 24.0375 151.806 24.6206 150.773 24.6206C148.117 24.6206 147.674 22.434 147.674 21.4154C147.674 17.9206 152.542 16.1714 155.198 16.1714V22.1424ZM182.195 21.2697C182.195 22.5779 182.638 23.4544 182.933 24.0356C183.214 24.4502 183.895 24.736 184.853 25.1382L185 25.1999V26.3661H175.998V25.1999C176.172 25.1574 176.346 25.1275 176.513 25.0988C176.91 25.0304 177.266 24.9693 177.472 24.7626C177.917 24.4729 178.065 24.0337 178.211 23.4544C178.305 23.179 178.281 22.7896 178.25 22.2863V22.2861V22.2859C178.232 21.9868 178.211 21.6474 178.211 21.2678V15.1491C178.211 13.6933 178.065 11.5085 177.624 10.7797C177.179 9.90691 176.443 9.46959 174.966 9.46959C173.49 9.46959 172.015 10.1966 171.279 11.5085C170.541 12.6728 170.541 14.7155 170.541 16.7526V21.7051C170.541 23.0152 170.834 23.8898 171.13 24.3272C171.423 24.7645 172.161 24.9102 173.047 25.056V26.2203H163.753V25.056C164.492 25.056 165.082 24.9102 165.377 24.7645C165.822 24.6187 166.259 24.1795 166.409 23.6002C166.557 23.161 166.706 22.434 166.706 21.4136V8.59496H163.753V7.57455H169.655L170.393 10.9254H170.689L170.752 10.8317C171.643 9.50739 173.139 7.28488 176.886 7.28488C177.917 7.28488 178.801 7.42878 179.687 7.8661C180.425 8.30341 181.161 8.8865 181.604 9.76114C182.047 10.4881 182.195 11.6543 182.195 12.8186V21.2697ZM140.741 6.1187C140.15 6.26447 139.855 6.84756 139.56 7.57642C139.412 8.30528 139.117 8.74073 138.674 8.88463C138.231 9.03228 137.79 9.03228 137.347 8.74073C136.315 7.8661 134.544 6.84756 131.298 6.84756C125.986 6.84756 123.774 10.4881 123.774 13.8372C123.774 17.7711 125.25 19.6662 128.64 20.3932C128.79 20.3932 128.79 20.6847 128.64 20.6847C125.839 21.2678 123.183 22.1424 123.183 24.7645C123.183 26.368 124.069 27.2407 125.398 27.8238C126.723 28.405 128.64 28.6985 131.002 28.6985C132.249 28.6985 133.281 28.7517 134.098 28.7938C134.634 28.8214 135.077 28.8442 135.428 28.8442C136.317 28.9574 137.172 29.2555 137.936 29.7189C138.526 30.1562 138.821 30.885 138.821 31.7559C138.821 33.0679 138.083 33.9425 136.756 34.8172C135.431 35.546 133.804 35.8376 131.593 35.8376C129.823 35.8376 128.201 35.6899 126.872 34.8172C125.841 34.2341 125.691 33.0698 125.841 32.1951C125.99 31.3205 125.691 30.4477 124.66 30.1562C124.015 30.0158 123.354 30.3129 123.037 30.885C122.74 31.3186 122.593 31.9017 122.593 32.6306C122.593 34.8153 124.364 35.8338 125.691 36.2711C127.756 36.8524 129.087 37 130.855 37C133.365 37 135.28 36.5627 136.756 35.9796C138.233 35.2507 139.119 34.378 139.707 33.3576C140.296 32.339 140.593 31.3186 140.593 30.2982C140.593 28.9881 140.296 27.822 139.707 27.095C138.058 24.9656 135.862 24.8815 131.528 24.7155C130.822 24.6885 130.059 24.6593 129.233 24.6187C126.429 24.6187 125.839 24.0356 125.839 23.161C125.839 21.8509 126.872 21.4136 131.002 20.6847C135.132 20.1016 138.967 18.5 138.967 13.6933C138.967 12.2355 138.674 11.0712 138.229 10.1985C139.117 10.3424 139.855 10.3424 140.591 10.1985C141.479 9.90691 141.918 9.46959 142.215 9.03228C142.511 8.44919 142.656 7.8661 142.363 7.42878C142.511 6.26447 141.772 5.82715 140.741 6.1187ZM127.61 13.9848C127.61 18.9354 128.941 19.812 131.447 19.812C133.807 19.812 135.43 19.0831 135.43 13.839C135.43 10.1966 134.546 7.8661 131.447 7.8661C128.792 7.8661 127.61 10.49 127.61 13.9848Z" fill="#54301A"/>
</svg>
