<?xml version="1.0" encoding="UTF-8" standalone="no"?>
<!-- Created with Inkscape (http://www.inkscape.org/) -->

<svg
   version="1.1"
   id="svg2"
   width="272.12"
   height="145.50667"
   viewBox="0 0 272.12 145.50667"
   sodipodi:docname="JSS_std_blue_P282.eps"
   xmlns:inkscape="http://www.inkscape.org/namespaces/inkscape"
   xmlns:sodipodi="http://sodipodi.sourceforge.net/DTD/sodipodi-0.dtd"
   xmlns="http://www.w3.org/2000/svg"
   xmlns:svg="http://www.w3.org/2000/svg">
  <defs
     id="defs6" />
  <sodipodi:namedview
     id="namedview4"
     pagecolor="#ffffff"
     bordercolor="#000000"
     borderopacity="0.25"
     inkscape:showpageshadow="2"
     inkscape:pageopacity="0.0"
     inkscape:pagecheckerboard="0"
     inkscape:deskcolor="#d1d1d1" />
  <g
     id="g8"
     inkscape:groupmode="layer"
     inkscape:label="ink_ext_XXXXXX"
     transform="matrix(1.3333333,0,0,-1.3333333,0,145.50667)">
    <g
       id="g10"
       transform="scale(0.1)">
      <path
         d="m 457.367,224.352 c -19.496,0 -34.226,6.816 -43.519,12.421 l -6.352,-8.285 h -9.062 l -1.582,59.192 h 9.289 c 7.925,-25.09 23.121,-52.129 50.996,-52.129 20.414,0 30.375,11.933 30.375,28.738 0,13.402 -8.16,23.879 -24.473,30.207 -12.023,4.629 -22,8.027 -32.191,12.668 -19.27,8.762 -29.692,24.356 -29.692,45.789 0,26.547 21.75,48.223 53.262,48.223 16.094,0 29.703,-5.852 38.762,-11.446 l 5.672,7.54 h 9.293 l 0.902,-56.743 h -9.293 c -8.156,26.059 -18.133,49.68 -43.973,49.68 -15.191,0 -26.301,-10.953 -26.301,-25.078 0,-14.137 7.489,-22.41 22.903,-28.981 10.422,-4.628 21.984,-8.289 31.273,-12.668 18.598,-8.289 33.094,-20.464 33.094,-46.523 0,-30.195 -24.02,-52.605 -59.383,-52.605"
         style="fill:#0a2448;fill-opacity:1;fill-rule:nonzero;stroke:none"
         id="path12" />
      <path
         d="m 562.367,259.18 c 0,-12.668 6.571,-18.274 15.18,-18.274 10.207,0 15.644,5.606 20.633,11.457 l 0.449,40.918 c -20.852,-7.308 -36.262,-14.125 -36.262,-34.101 m 61.434,-33.856 c -14.965,0 -22.219,6.328 -24.719,17.051 h -0.672 c -8.621,-9.742 -19.496,-17.293 -36.726,-17.293 -17,0 -29.461,11.688 -29.461,29.473 0,20.207 11.558,28.25 23.804,33.121 13.813,5.847 32.629,10.719 42.602,16.07 v 11.453 c 0,7.063 -1.352,25.078 -18.582,25.078 -7.024,0 -12.242,-2.925 -14.512,-5.113 0.453,-3.648 2.723,-9.5 2.723,-16.07 0,-6.082 -4.309,-12.914 -16.086,-12.914 -10.891,0 -14.742,7.797 -14.742,15.593 0,16.317 24.937,27.758 44.203,27.758 25.621,0 45.566,-6.082 45.566,-39.445 0,-20.711 -0.679,-42.617 -0.679,-57.246 0,-6.57 1.8,-10.219 6.121,-12.656 2.484,-1.469 8.609,-1.223 12.691,-1.223 v -8.273 c -5.668,-2.434 -14.512,-5.364 -21.531,-5.364"
         style="fill:#0a2448;fill-opacity:1;fill-rule:nonzero;stroke:none"
         id="path14" />
      <path
         d="m 735.145,378.355 c -11.11,0 -15.184,9.497 -21.305,22.657 -9.305,-2.926 -12.692,-17.539 -12.692,-46.035 v -9.586 h 22.125 v -11.922 h -21.906 v -83.055 c 0,-12.18 11.106,-12.426 21.301,-13.637 v -8.285 H 656.48 v 8.285 c 11.559,0.723 16.329,2.914 16.329,12.411 v 84.281 h -21.11 v 11.922 h 21.11 v 2.449 c 0,36.043 18.363,63.39 52.129,63.39 17.007,0 24.484,-8.031 24.484,-17.281 0,-7.074 -3.402,-15.594 -14.277,-15.594"
         style="fill:#0a2448;fill-opacity:1;fill-rule:nonzero;stroke:none"
         id="path16" />
      <path
         d="m 1376.24,308.621 c -9.53,0 -15.87,5.606 -15.87,14.125 0,4.137 0.68,7.309 1.35,9.742 -10.87,-0.246 -19.94,-10.722 -22.43,-15.101 v -66.731 c 0,-5.605 1.82,-9.254 5.67,-10.968 3.4,-1.7 11.78,-2.668 15.41,-2.911 v -8.289 h -65.97 v 8.289 c 4.31,0.243 7.03,0.477 10.21,1.457 4.52,1.454 6.34,5.606 6.34,10.954 v 70.878 c 0,5.118 -2.72,10.231 -6.34,13.157 -2.72,1.703 -7.26,2.925 -11.57,3.156 v 8.289 l 44.66,2.68 1.59,-1.703 V 328.84 h 0.45 c 10.21,13.39 21.31,19.965 32.41,19.965 11.56,0 19.27,-8.274 19.27,-21.188 0,-9.988 -5.66,-18.996 -15.18,-18.996"
         style="fill:#0a2448;fill-opacity:1;fill-rule:nonzero;stroke:none"
         id="path18" />
      <path
         d="m 1430.94,259.18 c 0,-12.668 6.57,-18.274 15.19,-18.274 10.2,0 15.64,5.606 20.62,11.457 l 0.45,40.918 c -20.85,-7.308 -36.26,-14.125 -36.26,-34.101 m 61.43,-33.856 c -14.96,0 -22.21,6.328 -24.71,17.051 h -0.68 c -8.62,-9.742 -19.49,-17.293 -36.72,-17.293 -17,0 -29.46,11.688 -29.46,29.473 0,20.207 11.56,28.25 23.79,33.121 13.84,5.847 32.64,10.719 42.61,16.07 v 11.453 c 0,7.063 -1.35,25.078 -18.58,25.078 -7.02,0 -12.24,-2.925 -14.51,-5.113 0.46,-3.648 2.72,-9.5 2.72,-16.07 0,-6.082 -4.31,-12.914 -16.1,-12.914 -10.87,0 -14.73,7.797 -14.73,15.593 0,16.317 24.94,27.758 44.21,27.758 25.62,0 45.56,-6.082 45.56,-39.445 0,-20.711 -0.68,-42.617 -0.68,-57.246 0,-6.57 1.82,-10.219 6.12,-12.656 2.49,-1.469 8.61,-1.223 12.7,-1.223 v -8.273 c -5.67,-2.434 -14.51,-5.364 -21.54,-5.364"
         style="fill:#0a2448;fill-opacity:1;fill-rule:nonzero;stroke:none"
         id="path20" />
      <path
         d="m 1573.14,224.84 c -14.51,0 -27.65,6.57 -32.87,10.476 l -2.72,-7.796 h -8.39 l -1.35,42.617 h 7.7 c 3.85,-13.879 17.45,-35.801 37.86,-35.801 13.6,0 20.85,6.57 20.85,18.75 0,12.914 -10.87,17.051 -29.24,22.902 -16.09,5.114 -34.22,14.121 -34.22,37.5 0,19.977 16.09,35.801 42.15,35.801 11.56,0 21.99,-3.156 28.34,-6.574 l 2.5,6.816 h 8.16 l 1.8,-39.199 h -7.93 c -3.85,15.336 -15.41,29.457 -31.05,29.457 -11.56,0 -18.82,-6.57 -18.82,-15.824 0,-13.156 8.84,-16.317 28.56,-22.656 20.63,-6.817 34.91,-16.071 34.91,-37.5 0,-25.09 -20.63,-38.969 -46.24,-38.969"
         style="fill:#0a2448;fill-opacity:1;fill-rule:nonzero;stroke:none"
         id="path22" />
      <path
         d="m 1782.33,228.492 v 8.285 c 3.62,0.235 7.26,0.477 9.97,1.457 3.86,1.7 5.21,5.606 5.21,10.954 v 57.964 c 0,16.821 -7.02,25.336 -17.45,25.336 -14.73,0 -23.57,-11.195 -26.3,-16.312 v -65.762 c 0,-5.363 1.82,-8.766 5.45,-10.969 3.17,-1.457 6.81,-2.191 10.19,-2.668 v -8.285 h -60.51 v 8.285 c 4.3,0.235 7.02,0.477 10.19,1.457 4.54,1.457 6.35,5.606 6.35,10.954 v 70.878 c 0,5.118 -2.72,10.235 -6.35,13.157 -2.72,1.703 -7.25,2.914 -11.56,3.16 v 8.285 l 44.65,2.68 1.59,-1.711 v -16.805 h 0.46 c 9.3,9.25 17.9,20.461 38.76,20.461 22.68,0 33.32,-15.594 33.32,-39.457 v -59.668 c 0,-5.363 1.59,-8.766 5.9,-10.969 3.17,-1.453 5.89,-1.945 10.2,-2.422 v -8.285 h -60.07"
         style="fill:#0a2448;fill-opacity:1;fill-rule:nonzero;stroke:none"
         id="path24" />
      <path
         d="m 212.82,231.602 c 11.11,0 15.18,-9.497 21.301,-22.657 9.305,2.926 12.707,17.539 12.707,46.035 l -0.23,113.665 c 0,12.191 -11.11,16.21 -21.301,17.433 v 8.289 l 48.273,2.887 1.598,-1.832 -0.012,-103.844 v -25.633 -2.433 c 0,-36.047 -18.351,-64.785 -52.129,-64.785 -17.011,0 -24.488,8.031 -24.488,17.281 0,7.078 3.406,15.594 14.281,15.594"
         style="fill:#0a2448;fill-opacity:1;fill-rule:nonzero;stroke:none"
         id="path26" />
      <path
         d="m 1634.38,228.492 v 8.285 c 4.09,0.235 7.03,0.477 10.21,1.457 4.3,1.7 6.34,5.606 6.34,10.954 v 70.878 c 0,5.118 -2.49,9.497 -6.34,12.422 -2.72,1.95 -9.07,3.649 -13.38,3.895 v 8.285 l 46.47,2.68 1.59,-1.711 v -94.981 c 0,-5.359 2.27,-9.254 6.34,-11.211 3.4,-1.457 6.35,-2.191 10.2,-2.668 v -8.285 h -61.43"
         style="fill:#0a2448;fill-opacity:1;fill-rule:nonzero;stroke:none"
         id="path28" />
      <path
         d="m 1662.51,366.059 c -9.23,0 -16.73,7.875 -16.73,17.332 0,9.679 7.5,17.785 16.73,17.785 9.65,0 17.37,-7.875 17.37,-17.332 0,-9.68 -7.72,-17.785 -17.37,-17.785"
         style="fill:#0a2448;fill-opacity:1;fill-rule:nonzero;stroke:none"
         id="path30" />
      <path
         d="m 308.961,225.074 c -9.227,0 -16.727,7.875 -16.727,17.332 0,9.68 7.5,17.785 16.727,17.785 9.652,0 17.371,-7.875 17.371,-17.332 0,-9.679 -7.719,-17.785 -17.371,-17.785"
         style="fill:#0a2448;fill-opacity:1;fill-rule:nonzero;stroke:none"
         id="path32" />
      <path
         d="m 1094.19,224.352 c -19.5,0 -34.23,6.816 -43.52,12.421 l -6.36,-8.285 h -9.05 l -1.59,59.192 h 9.29 c 7.93,-25.09 23.12,-52.129 51,-52.129 20.41,0 30.37,11.933 30.37,28.738 0,13.402 -8.16,23.879 -24.47,30.207 -12.03,4.629 -22,8.027 -32.19,12.668 -19.27,8.762 -29.7,24.356 -29.7,45.789 0,26.547 21.76,48.223 53.27,48.223 16.09,0 29.7,-5.852 38.76,-11.446 l 5.67,7.54 h 9.29 l 0.9,-56.743 h -9.29 c -8.15,26.059 -18.13,49.68 -43.97,49.68 -15.19,0 -26.3,-10.953 -26.3,-25.078 0,-14.137 7.49,-22.41 22.9,-28.981 10.43,-4.628 21.99,-8.289 31.28,-12.668 18.59,-8.289 33.09,-20.464 33.09,-46.523 0,-30.195 -24.02,-52.605 -59.38,-52.605"
         style="fill:#0a2448;fill-opacity:1;fill-rule:nonzero;stroke:none"
         id="path34" />
      <path
         d="m 1199.18,259.18 c 0,-12.668 6.57,-18.274 15.18,-18.274 10.21,0 15.64,5.606 20.63,11.457 l 0.45,40.918 c -20.85,-7.308 -36.26,-14.125 -36.26,-34.101 m 61.43,-33.856 c -14.96,0 -22.22,6.328 -24.72,17.051 h -0.67 c -8.62,-9.742 -19.49,-17.293 -36.72,-17.293 -17,0 -29.46,11.688 -29.46,29.473 0,20.207 11.56,28.25 23.8,33.121 13.81,5.847 32.63,10.719 42.6,16.07 v 11.453 c 0,7.063 -1.35,25.078 -18.58,25.078 -7.02,0 -12.24,-2.925 -14.51,-5.113 0.45,-3.648 2.72,-9.5 2.72,-16.07 0,-6.082 -4.31,-12.914 -16.09,-12.914 -10.88,0 -14.74,7.797 -14.74,15.593 0,16.317 24.94,27.758 44.2,27.758 25.62,0 45.57,-6.082 45.57,-39.445 0,-20.711 -0.68,-42.617 -0.68,-57.246 0,-6.57 1.8,-10.219 6.12,-12.656 2.49,-1.469 8.61,-1.223 12.69,-1.223 v -8.273 c -5.67,-2.434 -14.51,-5.364 -21.53,-5.364"
         style="fill:#0a2448;fill-opacity:1;fill-rule:nonzero;stroke:none"
         id="path36" />
      <path
         d="m 822.844,308.621 c -9.524,0 -15.864,5.606 -15.864,14.125 0,4.137 0.68,7.309 1.352,9.742 -10.879,-0.246 -19.949,-10.722 -22.437,-15.101 v -66.731 c 0,-5.605 1.82,-9.254 5.671,-10.968 3.403,-1.7 11.778,-2.668 15.414,-2.911 v -8.289 h -65.968 v 8.289 c 4.301,0.243 7.023,0.477 10.207,1.457 4.519,1.454 6.34,5.606 6.34,10.954 v 70.878 c 0,5.118 -2.719,10.231 -6.34,13.157 -2.723,1.703 -7.258,2.925 -11.574,3.156 v 8.289 l 44.668,2.68 1.582,-1.703 V 328.84 h 0.453 c 10.207,13.39 21.312,19.965 32.41,19.965 11.558,0 19.265,-8.274 19.265,-21.188 0,-9.988 -5.656,-18.996 -15.179,-18.996"
         style="fill:#0a2448;fill-opacity:1;fill-rule:nonzero;stroke:none"
         id="path38" />
      <path
         d="m 877.547,259.18 c 0,-12.668 6.57,-18.274 15.195,-18.274 10.192,0 15.633,5.606 20.617,11.457 l 0.454,40.918 c -20.852,-7.308 -36.266,-14.125 -36.266,-34.101 m 61.433,-33.856 c -14.96,0 -22.218,6.328 -24.718,17.051 h -0.668 c -8.621,-9.742 -19.5,-17.293 -36.731,-17.293 -16.996,0 -29.461,11.688 -29.461,29.473 0,20.207 11.563,28.25 23.805,33.121 13.828,5.847 32.629,10.719 42.606,16.07 v 11.453 c 0,7.063 -1.356,25.078 -18.586,25.078 -7.024,0 -12.243,-2.925 -14.508,-5.113 0.461,-3.648 2.719,-9.5 2.719,-16.07 0,-6.082 -4.305,-12.914 -16.098,-12.914 -10.875,0 -14.731,7.797 -14.731,15.593 0,16.317 24.938,27.758 44.204,27.758 25.621,0 45.57,-6.082 45.57,-39.445 0,-20.711 -0.684,-42.617 -0.684,-57.246 0,-6.57 1.817,-10.219 6.121,-12.656 2.489,-1.469 8.61,-1.223 12.696,-1.223 v -8.273 c -5.672,-2.434 -14.512,-5.364 -21.536,-5.364"
         style="fill:#0a2448;fill-opacity:1;fill-rule:nonzero;stroke:none"
         id="path40" />
      <path
         d="m 1154.55,718.066 c -5.44,6.305 -2.02,10.375 0.88,15.84 5.14,9.809 6.33,14.098 14.96,31.098 4.61,9.059 6.92,15.723 5.76,21.586 -2.69,11.918 -17.04,20.594 -19.78,22.746 -2.76,2.137 -9.47,6.828 -10.46,8.918 -0.71,1.492 -0.82,3.195 -0.27,4.301 0.38,0.812 6.43,12.437 5.76,14.394 -1.34,3.985 -23.03,15.828 -40.87,23.043 -21.6,7.758 -33.35,10.93 -52.69,15.813 -23.9,6.058 -38.02,16.988 -38.02,16.988 0,0 -14.11,-10.93 -38.019,-16.988 -19.34,-4.883 -31.082,-8.055 -52.68,-15.813 -17.848,-7.215 -39.539,-19.058 -40.867,-23.043 -0.668,-1.957 5.375,-13.582 5.762,-14.394 0.527,-1.106 0.437,-2.809 -0.286,-4.301 -0.976,-2.09 -7.703,-6.781 -10.449,-8.918 -2.758,-2.152 -17.101,-10.828 -19.797,-22.746 -1.156,-5.863 1.149,-12.527 5.778,-21.586 8.621,-17 9.816,-21.289 14.949,-31.098 2.898,-5.465 6.312,-9.535 0.875,-15.84 -18.984,-18.414 -30.492,-45.062 -27.348,-75.117 2.59,-23.312 13.895,-48.929 29.086,-65.644 12.348,-13.895 23.223,-23.625 43.172,-36.586 15.18,-9.86 70.514,-34.797 89.824,-49.758 19.3,14.961 74.64,39.898 89.82,49.758 19.96,12.961 30.83,22.691 43.19,36.586 15.18,16.715 26.48,42.332 29.07,65.644 3.14,30.055 -8.36,56.703 -27.35,75.117 m -18.41,-143.339 c -8.19,-8.957 -19.59,-18.43 -48.65,-33.957 -27.22,-14.047 -47.86,-22.372 -67.67,-36.934 -19.81,14.562 -40.453,22.887 -67.66,36.934 -29.07,15.527 -40.476,25 -48.66,33.957 -25.309,27.062 -33.687,48.648 -35.387,74.55 0.27,24.461 8.633,46.625 26.469,64.192 9.82,8.929 6.047,11.894 2.59,18.426 -5.168,9.781 -4.277,9.746 -12.961,27.914 -3.895,8.234 -10.941,19.871 -8.328,27.644 3.16,6.895 18.918,17.5 19.859,18.133 5.235,3.504 8.34,5.734 12.192,9.059 2.191,1.878 0.617,4.16 0.179,5.039 -0.425,0.875 -6.726,10.836 -5.746,12.668 5.18,9.781 54.41,25.89 81.731,32.242 13.144,3.027 35.722,15.543 35.722,15.543 0,0 22.58,-12.516 35.72,-15.543 27.34,-6.352 76.56,-22.461 81.74,-32.242 0.98,-1.832 -5.32,-11.793 -5.76,-12.668 -0.42,-0.879 -1.99,-3.161 0.18,-5.039 3.86,-3.325 6.98,-5.555 12.2,-9.059 0.95,-0.633 16.71,-11.238 19.87,-18.133 2.6,-7.773 -4.45,-19.41 -8.34,-27.644 -8.67,-18.168 -7.78,-18.133 -12.97,-27.914 -3.45,-6.532 -7.21,-9.497 2.6,-18.426 17.83,-17.567 26.19,-39.731 26.47,-64.192 -1.71,-25.902 -10.08,-47.488 -35.39,-74.55"
         style="fill:#0a2448;fill-opacity:1;fill-rule:nonzero;stroke:none"
         id="path42" />
      <path
         d="m 1150.23,642.074 c -2.72,2.449 -9.71,0.528 -10.6,-0.851 -2.86,9.539 -8.57,17.707 -15.56,22.941 0,0 -0.03,1.789 0.84,2.668 1.64,0.875 6.32,0.281 10.07,2.02 2.89,1.328 3.47,-7.473 11.24,-6.34 4.78,0.711 5.39,5.195 3.38,5.98 -0.31,0.117 -0.57,0.192 -0.97,0.192 -0.36,-0.024 -0.43,-0.09 -0.58,-0.153 -0.9,-0.32 -1.98,-2.051 -2.98,-2.269 -4.04,-0.864 -4.6,5.179 -4.6,7.785 0,1.133 2.3,8.375 0.56,13.223 -2.17,6.121 -9.05,9.484 -12.07,11.519 -0.9,0.566 -2.41,4.137 -0.59,5.465 4.32,3.172 -4.03,6.043 -5.48,-1.149 -0.78,-3.968 0.83,-5.023 0.58,-7.203 -0.28,-2.589 -8.11,-7.859 -1.71,-12.652 3.44,-2.594 4.51,1.648 2.86,3.734 -3.16,4.036 11.23,10.079 11.81,-5.179 0.19,-5.18 -7.01,-8.246 -10.74,-9.461 -0.77,-0.254 -1.6,-0.5 -2.22,-0.528 -0.78,-0.023 -0.78,-0.023 -1.4,0 -15.92,0.801 -29.96,17.489 -29.96,37.489 0,9.484 3.06,18.222 8.05,24.871 3.43,4.59 8.26,8.48 12.36,10.722 4.11,2.254 6.12,2.864 10.34,3.969 7.02,1.844 14.69,3.531 14.15,8.934 -0.58,5.887 -6.34,8.929 -9.5,5.758 -1.45,-2.899 3.45,-3.168 3.16,-6.055 -0.26,-2.684 -5.06,-3.352 -8.34,-1.16 -1.68,1.133 -2.3,2.886 -2.59,5.773 -1.15,11.508 21.87,19.86 21.87,19.86 0,0 -19,5.757 -19.55,11.222 -0.51,4.602 1.7,5.196 3.72,2.59 1.17,-1.531 4.61,1.742 0.58,5.465 -3.17,2.023 -7.8,0.219 -9.21,-4.602 -1.45,-4.894 -19.29,16.703 -21.59,23.043 -1.12,3.043 0.03,9.86 3.74,8.621 2.56,-0.863 2.03,-2.601 1.16,-3.734 -1.05,-1.394 -0.16,-3.816 1.73,-4.035 1.86,-0.207 4.72,1.867 4.89,5.465 0.27,6.918 -12.98,12.097 -16.4,1.441 -0.72,-2.215 -2.61,0.863 -4.05,2.024 -3.18,2.539 -23.03,26.187 -49.52,26.468 -10.11,0.118 -5.48,-2.406 -10.35,-1.996 -3.47,0.285 -5.76,5.168 -7.22,6.883 -1.46,-1.715 -3.76,-6.598 -7.23,-6.883 -4.87,-0.41 -0.23,2.114 -10.35,1.996 -26.48,-0.281 -46.339,-23.929 -49.511,-26.468 -1.457,-1.161 -3.324,-4.239 -4.047,-2.024 -3.437,10.656 -16.687,5.477 -16.402,-1.441 0.168,-3.598 3.016,-5.672 4.883,-5.465 1.883,0.219 2.785,2.641 1.726,4.035 -0.863,1.133 -1.406,2.871 1.161,3.734 3.722,1.239 4.871,-5.578 3.738,-8.621 -2.281,-6.34 -20.145,-27.937 -21.586,-23.043 -1.418,4.821 -6.043,6.625 -9.215,4.602 -4.019,-3.723 -0.594,-6.996 0.578,-5.465 2.024,2.606 4.242,2.012 3.738,-2.59 -0.554,-5.465 -19.546,-11.222 -19.546,-11.222 0,0 23.015,-8.352 21.855,-19.86 -0.297,-2.887 -0.914,-4.64 -2.59,-5.773 -3.289,-2.192 -8.082,-1.524 -8.34,1.16 -0.285,2.887 4.614,3.156 3.157,6.055 -3.157,3.171 -8.903,0.129 -9.496,-5.758 -0.543,-5.403 7.125,-7.09 14.148,-8.934 4.215,-1.105 6.227,-1.715 10.336,-3.969 4.113,-2.242 8.933,-6.132 12.359,-10.722 4.989,-6.649 8.055,-15.387 8.055,-24.871 0,-20 -14.035,-36.688 -29.961,-37.489 -0.605,-0.023 -0.605,-0.023 -1.406,0 -0.617,0.028 -1.442,0.274 -2.215,0.528 -3.727,1.215 -10.93,4.281 -10.723,9.461 0.567,15.258 14.949,9.215 11.789,5.179 -1.636,-2.086 -0.578,-6.328 2.875,-3.734 6.407,4.793 -1.441,10.063 -1.726,12.652 -0.231,2.18 1.367,3.235 0.582,7.203 -1.446,7.192 -9.797,4.321 -5.481,1.149 1.821,-1.328 0.313,-4.899 -0.578,-5.465 -3.027,-2.035 -9.91,-5.398 -12.062,-11.519 -1.739,-4.848 0.543,-12.09 0.543,-13.223 0,-2.606 -0.543,-8.649 -4.602,-7.785 -0.992,0.218 -2.062,1.949 -2.965,2.269 -0.168,0.063 -0.23,0.129 -0.593,0.153 -0.399,0 -0.657,-0.075 -0.954,-0.192 -2.023,-0.785 -1.418,-5.269 3.375,-5.98 7.758,-1.133 8.34,7.668 11.239,6.34 3.75,-1.739 8.418,-1.145 10.066,-2.02 0.863,-0.879 0.852,-2.668 0.852,-2.668 -7.012,-5.234 -12.707,-13.402 -15.582,-22.941 -0.875,1.379 -7.875,3.3 -10.594,0.851 -3.168,-2.859 -2.192,-6.469 -2.024,-7.758 0.274,-2.32 5.207,-2.875 4.602,1.727 -0.578,4.332 5.18,2.875 6.059,-1.445 0.863,-3.879 0.179,-8.403 0.281,-10.645 0.84,-19.305 15.476,-30.801 30.93,-30.801 2.578,0 5.027,0.246 7.359,0.789 2.742,0.645 4.305,-4.253 6.598,-8.289 0,0 -9.485,-3.734 -8.325,-10.925 1.145,-7.192 7.743,-10.942 12.641,-4.614 2.023,2.602 -1.418,2.887 -5.168,2.887 -2.836,2.023 -2.563,5.488 4.316,6.906 8.352,1.727 15.813,-16.121 18.727,-23.609 2.859,-7.473 18.684,-28.207 40.284,-23.313 1.44,0.325 14.42,-19.277 14.42,-19.277 0,0 12.97,19.602 14.41,19.277 21.6,-4.894 37.44,15.84 40.3,23.313 2.9,7.488 10.37,25.336 18.72,23.609 6.87,-1.418 7.14,-4.883 4.31,-6.906 -3.75,0 -7.2,-0.285 -5.17,-2.887 4.91,-6.328 11.49,-2.578 12.65,4.614 1.16,7.191 -8.34,10.925 -8.34,10.925 2.31,4.036 3.86,8.934 6.6,8.289 2.34,-0.543 4.78,-0.789 7.37,-0.789 15.44,0 30.08,11.496 30.92,30.801 0.1,2.242 -0.58,6.766 0.3,10.645 0.86,4.32 6.62,5.777 6.04,1.445 -0.61,-4.602 4.33,-4.047 4.6,-1.727 0.17,1.289 1.16,4.899 -2.02,7.758 m -134.05,190.574 c 2.6,3.723 3.45,8.352 4.03,6.043 0.99,-3.957 4.33,-5.761 2.89,-6.921 -2.22,-1.778 -7.86,-0.5 -6.92,0.878 m 3.36,-309.457 -7.5,10.954 7.5,10.347 7.49,-10.347 z m 117.18,101.625 c 0,-14.961 -11.93,-27.062 -26.62,-27.062 -6.52,0 -12.49,2.359 -17.09,6.316 -3.3,3.442 -5.81,8.969 -5.81,14.551 0,9.664 6.69,17.613 14.78,18.723 0.63,0.078 1.09,0.14 1.93,0.078 0.83,-0.067 1.27,-0.207 2.05,-0.813 0.74,-0.578 1.57,-1.828 2.53,-4.898 2.6,-1.133 2.91,0.996 2.91,3.457 0,4.047 -4.32,5.758 -9.54,7.77 -3.79,1.48 -0.49,9.625 -6.3,10.078 -3.75,0.297 -5.18,-1.446 -4.33,-4.024 0.58,-2.238 2.63,-0.191 3.75,-0.859 2.44,-1.508 1.06,-4.809 -0.2,-6.938 -0.68,-1.121 -0.8,-1.222 -1.25,-1.761 -0.46,-0.543 -1.06,-1.086 -1.54,-1.575 -5.09,-5.168 -8.23,-11.984 -8.23,-19.097 0,-4.961 2.16,-10.942 3.73,-13.324 1.56,-2.372 4.91,-6.395 7.66,-8.161 0,0 2.68,-6.457 -4.2,-12.203 -3.46,-2.875 -6.91,0.875 -18.43,-19.277 -0.45,-0.789 -1.66,1.351 -4.09,3.105 -0.79,0.578 -1.92,1.301 -2.77,1.598 -0.86,0.297 -1.52,0.477 -2.51,0.516 -3.7,0.129 -9.18,-2.192 -9.64,-8.106 -0.5,-6.91 6.34,-3.43 8.06,2.317 2.25,1.445 4.26,-1.172 5.78,-4.02 2.09,-3.918 -2.31,-13.262 -14.11,-20.746 -10.64,-6.625 -29.67,-3.441 -29.09,9.227 0.44,9.355 13.26,11.519 11.53,4.019 -1.05,-4.512 10.94,-5.168 5.2,4.613 -5.78,9.782 -19.02,1.16 -21.34,-4.613 -2.33,5.773 -15.55,14.395 -21.352,4.613 -5.723,-9.781 6.262,-9.125 5.222,-4.613 -1.74,7.5 11.08,5.336 11.5,-4.019 0.6,-12.668 -18.426,-15.852 -29.07,-9.227 -11.817,7.484 -16.199,16.828 -14.11,20.746 1.508,2.848 3.52,5.465 5.774,4.02 1.726,-5.747 8.555,-9.227 8.055,-2.317 -0.454,5.914 -5.942,8.235 -9.641,8.106 -0.992,-0.039 -1.648,-0.219 -2.5,-0.516 -0.852,-0.297 -1.973,-1.02 -2.785,-1.598 -2.406,-1.754 -3.633,-3.894 -4.082,-3.105 -11.524,20.152 -14.965,16.402 -18.418,19.277 -6.895,5.746 -4.199,12.203 -4.199,12.203 2.742,1.766 6.093,5.789 7.652,8.161 1.562,2.382 3.727,8.363 3.727,13.324 0,7.113 -3.145,13.929 -8.223,19.097 -0.477,0.489 -1.082,1.032 -1.535,1.575 -0.45,0.539 -0.59,0.64 -1.262,1.761 -1.25,2.129 -2.641,5.43 -0.191,6.938 1.105,0.668 3.168,-1.379 3.75,0.859 0.847,2.578 -0.582,4.321 -4.344,4.024 -5.813,-0.453 -2.516,-8.598 -6.305,-10.078 -5.203,-2.012 -9.535,-3.723 -9.535,-7.77 0,-2.461 0.309,-4.59 2.914,-3.457 0.965,3.07 1.789,4.32 2.523,4.898 0.801,0.606 1.227,0.746 2.063,0.813 0.824,0.062 1.289,0 1.922,-0.078 8.094,-1.11 14.781,-9.059 14.781,-18.723 0,-5.582 -2.512,-11.109 -5.801,-14.551 -4.613,-3.957 -10.566,-6.316 -17.086,-6.316 -14.707,0 -26.625,12.101 -26.625,27.062 -1.742,22.735 12.086,36.563 24.68,43.536 14.16,6.054 24.238,21.843 24.238,40.359 0,16.137 -6.906,29.254 -18.543,37.285 -2.605,1.789 -6.097,3.504 -7.5,4.199 -1.39,0.684 -2.023,1.11 -2.398,1.43 -2.563,2.18 -0.707,3.043 0.527,5.879 0.504,1.121 1.082,2.074 1.176,4.418 0.09,2.348 -0.66,4.433 -1.176,5.672 -0.515,1.238 -1.441,2.101 -1.144,4.601 1.144,10.926 12.679,6.25 13.515,2.024 0.246,-1.172 0.297,-2 0.246,-2.59 -0.167,-1.613 -1.16,-2.32 -1.957,-2.32 -0.8,0 -1.226,0.386 -1.664,0.449 -2.785,0.453 -1.48,-1.985 -1.238,-2.758 0.879,-2.59 3.379,-3.391 7.129,-1.328 3.762,2.062 4.137,5.324 4.988,5.078 5.5,-1.582 8.039,4.602 5.746,4.898 -2.308,0.27 -5.179,-2.589 -7.191,0 -6.906,8.879 -17.887,8.079 -20.453,4.602 -4.02,-5.465 -6.61,-3.453 -6.61,-3.453 0,0 -5.453,4.008 -4.882,4.316 10.347,5.758 12.949,7.692 26.765,21.301 3.465,3.981 9.77,12.09 15.231,18.84 4.023,4.976 5.969,7.23 9.008,10.039 3.043,2.797 4.898,4.164 7.617,6.148 13.172,9.602 31.531,20.09 43.001,11.032 5.52,-4.383 3.44,-9.215 1.42,-10.93 -2.29,-2.305 -3.88,5.605 -4.87,5.168 -3.17,-0.594 1.73,-5.762 -0.58,-8.055 -2.15,-2.316 -6.01,0.492 -5.77,2.887 0.58,5.453 -12.08,-4.895 3.18,-9.227 3.23,-0.914 3.17,1.161 5.46,0.875 2.3,-0.308 4.48,-2.742 9.23,-2.742 4.76,0 6.92,2.434 9.21,2.742 2.31,0.286 2.25,-1.789 5.47,-0.875 15.27,4.332 2.62,14.68 3.19,9.227 0.24,-2.395 -3.63,-5.203 -5.78,-2.887 -2.3,2.293 2.59,7.461 -0.57,8.055 -1,0.437 -2.59,-7.473 -4.87,-5.168 -2.04,1.715 -4.11,6.547 1.42,10.93 11.45,9.058 29.82,-1.43 42.99,-11.032 2.73,-1.984 4.57,-3.351 7.62,-6.148 3.05,-2.809 4.98,-5.063 9,-10.039 5.47,-6.75 11.77,-14.859 15.24,-18.84 13.81,-13.609 16.41,-15.543 26.76,-21.301 0.58,-0.308 -4.88,-4.316 -4.88,-4.316 0,0 -2.58,-2.012 -6.61,3.453 -2.55,3.477 -13.53,4.277 -20.45,-4.602 -2.02,-2.589 -4.88,0.27 -7.2,0 -2.29,-0.296 0.25,-6.48 5.76,-4.898 0.84,0.246 1.22,-3.016 4.98,-5.078 3.75,-2.063 6.26,-1.262 7.13,1.328 0.25,0.773 1.54,3.211 -1.23,2.758 -0.45,-0.063 -0.87,-0.449 -1.67,-0.449 -0.8,0 -1.8,0.707 -1.95,2.32 -0.06,0.59 0,1.418 0.23,2.59 0.85,4.226 12.37,8.902 13.52,-2.024 0.3,-2.5 -0.63,-3.363 -1.15,-4.601 -0.51,-1.239 -1.26,-3.324 -1.17,-5.672 0.09,-2.344 0.67,-3.297 1.17,-4.418 1.25,-2.836 3.1,-3.699 0.53,-5.879 -0.37,-0.32 -1,-0.746 -2.39,-1.43 -1.4,-0.695 -4.9,-2.41 -7.51,-4.199 -11.63,-8.031 -18.54,-21.148 -18.54,-37.285 0,-18.516 10.08,-34.305 24.25,-40.359 12.58,-6.973 26.41,-20.801 24.68,-43.536"
         style="fill:#0a2448;fill-opacity:1;fill-rule:nonzero;stroke:none"
         id="path44" />
      <path
         d="m 1058.99,665.93 -0.26,0.621 c -0.24,5.965 -2.25,12.949 -6.02,19.754 -5.95,10.711 -15.9,18.508 -21.35,19.668 0.92,0.925 1.2,1.031 1.6,1.351 6.18,4.989 20.21,-1.39 26.8,-13.246 6.41,-8.828 5.42,-22.594 -0.77,-28.148 m -13.54,-13.789 c -4.59,-2.575 -7.86,-3.903 -12.05,-4.575 -7.68,-1.211 -7.53,-0.386 -7.53,0.567 v 47.195 c 0,0 21.88,-6.328 22.73,-32.515 0.09,-2.266 0.58,-8.93 -3.15,-10.672 m -19.28,-28.493 v 11.817 c 7.47,0.234 14.08,1.883 17.56,3.441 0,-3.957 -8.09,-12.152 -17.56,-15.258 m -0.35,144.051 c 4.32,-0.371 8.49,-1.48 8.49,-1.48 0,0 7.06,-1.727 8.26,-3.531 1.61,-2.422 1.92,-7.383 1.73,-12.938 -0.77,-14.23 -3.25,-19.758 -7.67,-25.957 -1.44,-2.035 -3.26,-1.43 -5.6,-0.977 -2.12,0.438 -4.19,0.657 -5.16,0.813 z m 0.08,16.317 c 5.91,-1.496 10.91,-5.965 12.03,-9.809 -1.05,0.273 -5.45,1.934 -12.06,2.695 z m -12.7,-74.864 h -12.1 v 6.328 c 4.62,-0.578 6.94,-0.863 12.1,-0.863 z m -0.29,-61.273 c 0,-1.07 -5.7,-0.699 -9.2,1.98 -2.21,1.68 -2.9,3.817 -2.9,4.309 v 45.191 h 12.1 z m -0.03,-24.875 c -7.47,2.297 -10.84,9.266 -11.19,14.187 1.63,-0.347 5.84,-1.453 11.19,-1.699 z m 0.03,144.75 v -43.043 c 0,0 -6.05,0.269 -9.49,1.43 -2.19,0.718 -2.59,2.601 -2.59,2.601 v 36.821 c 3.7,1.144 7.78,1.906 12.08,2.191 m 0,17.68 v -7.926 c -10.26,-0.363 -12.39,-1.586 -12.66,-1.379 1.32,4.422 5.81,8.867 12.66,9.305 m -23.305,-55.555 c -7.203,3.723 -9.792,9.172 -9.792,14.676 0,5.695 4.058,11.39 9.792,15.543 z m 82.075,-31.848 c -5.43,10.649 -14.83,18.223 -25.16,21.035 6.32,9.368 8.72,20.618 9.02,30.684 0,1.906 -0.18,3.723 -0.52,5.477 1.15,0.847 5.23,-1.485 8.56,-6.356 3.75,-5.465 8.08,-0.875 4.3,2.012 -2.88,2.242 -5.72,12.953 -6.02,14.972 -0.32,2.012 -0.32,9.5 0.3,10.649 1.28,2.578 0,9.793 -3.48,2.887 -3.44,-6.911 -8.34,-5.184 -8.34,-5.184 -2.59,5.465 -9.55,16.547 -21.88,19.578 1.72,4.305 8.04,10.113 17.24,13.813 4.78,1.922 8.54,3.222 12.41,3.441 1.45,2.606 1.73,4.316 0.57,4.316 -7.16,0 -17.44,-3.285 -21.82,-5.308 -3.63,-1.699 -8.48,-2.938 -13.85,-3.414 -4.34,-0.375 -8.42,-0.195 -11.87,0.437 -3.32,0.594 -8.47,1.637 -12.538,2.68 -4.059,1.031 -6.457,1.984 -8.739,2.977 -3.902,1.703 -4.523,-3.348 -3.543,-4.266 1.379,-0.281 9.278,-3.066 11.985,-5.051 3.805,-2.797 6.365,-6.082 8.555,-9.058 -5.96,-2.192 -11.633,-6.485 -14.083,-10.645 -1.441,2.344 -3.929,4.574 -6.597,6.031 -1.946,1.071 -3.957,1.571 -5.532,1.727 -1.558,0.168 -3.128,0.168 -4.406,0.023 -7.769,-0.847 -11.699,-6.867 -11.699,-12.539 0,-3.195 1.84,-6.301 3.426,-7.769 1.172,-1.172 4.394,-2.164 6.597,-0.594 0.403,0.285 1.743,1.687 -0.023,3.855 -1.781,2.164 -1.109,6.957 3.812,6.957 4.938,0 8.93,-4.613 8.93,-9.781 -10.629,-5.617 -19.289,-15.734 -19.289,-26.922 0,-11.816 7.215,-22.293 21.609,-27.5 v -57.554 c 0,-0.707 0.313,-5.231 -5.347,0.699 -1.121,1.223 -2.797,2.707 -6.328,7.383 -2.575,3.363 -13.762,23.289 -15.684,23.289 -2.601,0 -4.894,-0.285 -2.023,-4.899 2.886,-4.59 4.035,-9.5 4.035,-14.097 0,-4.602 0.953,-10.235 -8.918,-18.133 -4.317,-3.453 -0.285,-6.906 3.469,-3.453 3.734,3.453 7.175,2.871 8.347,2.871 3.172,0 8.934,-0.332 17.836,-7.512 2.27,-1.816 4.035,-3.906 4.035,-6.726 0,-3.571 -2.836,-6.481 -6.339,-6.481 -3.508,0 -6.34,2.91 -6.34,6.481 0,1.66 0.746,1.867 1.726,3.015 0,0 -1.136,3.75 -5.476,0.594 -1.547,-1.16 -4.489,-3.766 -4.125,-8.133 0.605,-7.051 9.82,-14.988 23.429,-8.016 2.227,-3.609 6.379,-8.531 10.648,-11.226 2.61,-1.621 5.03,-2.461 6.93,-2.977 2.02,-0.554 1.8,-0.746 1.64,-1.222 -3.11,-9.641 -10.82,-13.621 -13.292,-14.176 -2.926,-0.645 -10.98,-2.012 -13.39,4.832 -2.692,8.055 5.039,7.051 4.332,10.902 -0.528,2.914 -6.11,2.41 -7.993,1.34 -4.793,-2.719 -7.589,-7.191 -7.589,-12.215 0,-8.586 8.636,-15.554 19.281,-15.554 5.437,0 10.151,2.046 13.591,4.121 3.44,2.09 7.04,4.136 10.58,8.558 4.32,-5.051 12.18,-9.367 14.72,-10.929 4.59,-2.899 19.06,-4.497 8.62,2.296 -15.97,10.399 -14.19,21.856 -14.19,21.856 13.03,2.484 30.06,16.082 33.29,35.543 16.11,9.445 22.1,31.703 12.6,50.359"
         style="fill:#0a2448;fill-opacity:1;fill-rule:nonzero;stroke:none"
         id="path46" />
    </g>
  </g>
</svg>
