<svg width="149" height="47" viewBox="0 0 149 47" fill="none" xmlns="http://www.w3.org/2000/svg">
<path fill-rule="evenodd" clip-rule="evenodd" d="M25.4448 46.0019C24.4565 46.0019 24.2532 44.991 24.2532 43.4725C24.2532 42.3747 24.2532 41.0122 25.3909 41.0122C26.4383 41.0122 26.5837 42.2712 26.5837 43.6323C26.5837 44.6874 26.5837 46.0019 25.4448 46.0019V46.0019ZM25.4681 40.0077C23.7437 40.0077 22.7578 41.2932 22.7578 43.5366C22.7578 45.7701 23.6972 47 25.4012 47C27.1282 47 28.0791 45.7701 28.0791 43.5366C28.0791 41.2604 27.1513 40.0077 25.4681 40.0077M15.4523 46.0751C14.8 46.0751 14.1423 45.7119 14.1423 44.8991C14.1423 44.439 14.5156 43.9677 14.854 43.8303L15.1024 43.8619C15.6981 44.0359 16.6285 44.303 16.6285 45.1247C16.6285 45.6818 16.146 46.0752 15.4523 46.0752V46.0751ZM15.3855 40.9313C15.9776 40.9313 16.4086 41.3712 16.4086 41.9787C16.4086 42.4249 16.1617 42.6948 15.8914 42.919L15.8127 42.9871L15.6802 42.9443C15.1271 42.7729 14.4397 42.5586 14.4397 41.7748C14.4397 41.3613 14.7949 40.9314 15.3856 40.9314L15.3855 40.9313ZM16.9516 43.4081L16.7174 43.3072L16.9439 43.1813C17.3803 42.9227 17.8203 42.5851 17.8203 41.7872C17.8203 40.9023 17.0366 40.0076 15.54 40.0076C14.0446 40.0076 13.0371 40.7511 13.0371 41.8501C13.0371 42.5851 13.3587 42.9491 13.8401 43.2668L14.0357 43.3928L13.8246 43.5163C13.0744 43.8767 12.6973 44.391 12.6973 45.0803C12.6973 46.2651 13.701 46.9999 15.32 46.9999C17.0315 46.9999 18.0956 46.221 18.0956 44.9733C18.0956 44.255 17.7213 43.7583 16.9516 43.408M34.3681 42.3329L34.2174 42.3392V41.0611L34.3899 41.0362C34.7644 40.9881 35.9727 40.9908 36.0718 40.9908C36.7681 40.9908 36.9547 41.185 37.1888 41.4344L37.1876 40C36.9173 40.0983 36.6175 40.0832 36.3885 40.0832H33.0233V43.3754C33.224 43.3224 33.5651 43.2809 33.8907 43.2644C34.5765 43.2 35.144 43.3463 35.5262 43.6828C35.8506 43.9702 35.983 44.2829 35.9483 44.8652C35.8852 45.9566 35.117 46.1381 34.2703 46.1381C33.8558 46.1381 33.251 46.0422 32.8084 45.8383L32.4789 46.6018C33.0053 46.859 33.6525 47 34.3654 47C36.6523 47 37.3845 45.7386 37.3845 44.6634C37.3845 44.4428 37.4103 43.6802 36.7462 43.0578C36.189 42.5383 35.3885 42.2913 34.368 42.333M7.40821 45.9344L7.41794 40.0383C6.79768 40.6079 6.13749 40.9457 5.38464 41.1953L6.02557 41.3907L6.046 45.9344C6.046 46.6098 5.70901 46.7156 5.51334 46.9249H7.9404C7.74474 46.7156 7.40754 46.6098 7.40754 45.9344" fill="#990000"/>
<path fill-rule="evenodd" clip-rule="evenodd" d="M88.169 37C80.2109 37 77.2163 32.297 76.3215 28.3103L76.3229 28.3102C76.09 27.277 75.999 26.289 75.999 25.4466C75.999 23.5425 76.2846 21.4716 77.1192 19.6226C78.5288 16.4952 81.508 14 87.3166 14C88.37 14 89.2695 14.184 89.7592 14.2842C89.8765 14.3082 89.9703 14.3274 90.037 14.3381C90.3073 14.3809 90.5992 14.412 90.8693 14.412C91.2525 14.412 91.4789 14.2603 91.6921 14.1173L91.7361 14.0878C91.7822 14.0586 91.9076 13.9896 91.9076 14.1768L91.9108 17.4351L91.9076 17.567C91.9076 17.7328 91.773 17.692 91.7347 17.6586C91.6686 17.6019 91.5911 17.5294 91.5014 17.4455L91.5014 17.4455C90.8426 16.8291 89.5319 15.6029 87.3344 15.6029C87.3344 15.6043 87.3456 15.6054 87.3545 15.6063C87.3792 15.6087 87.387 15.6095 87.0987 15.6095C84.0517 15.6095 81.7743 17.1089 80.4683 19.6227H80.4671C79.6374 21.2151 79.1983 23.2136 79.1983 25.4923C79.1983 26.4787 79.3046 27.4225 79.5081 28.3115C80.4619 32.4999 83.5704 35.4309 87.744 35.4309C88.6568 35.4309 90.0217 35.1438 90.9395 34.8759C92.8751 34.3061 94.1314 32.9109 95.0979 31.8376C95.1676 31.7601 95.2359 31.6843 95.3028 31.6106C95.341 31.5692 95.4638 31.5952 95.4153 31.7251C95.08 32.6052 93.8727 35.4259 93.843 35.4662C93.6857 35.6843 92.8189 36.1005 92.1788 36.3188C91.1494 36.6723 89.7041 37 88.169 37ZM148.383 17.3102L148.379 14.2082C148.379 14.2082 148.408 14.0897 148.233 14.1217C147.772 14.2457 147.057 14.3414 146.586 14.3414H133.203C132.734 14.3414 132.018 14.2458 131.557 14.1217C131.385 14.0897 131.407 14.2082 131.407 14.2082L131.406 17.3102C131.406 17.3514 131.405 17.3869 131.405 17.4182C131.403 17.5031 131.402 17.5564 131.417 17.6035C131.442 17.7199 131.563 17.6971 131.597 17.597C131.597 17.597 131.666 17.2779 131.892 16.9834C132.286 16.4687 132.931 15.7492 133.966 15.7389L135.214 15.7406L135.354 15.7433C136.107 15.7578 137.708 15.7886 138.204 15.8341L138.405 15.855V19.6212V28.31V33.4809C138.405 35.9975 136.371 36.4653 136.371 36.4653C136.284 36.4915 136.228 36.598 136.366 36.6382C136.429 36.6603 136.532 36.6603 136.681 36.6603H143.118C143.268 36.6603 143.368 36.6603 143.43 36.6382C143.567 36.598 143.515 36.4915 143.427 36.4653C143.427 36.4653 141.394 35.9975 141.394 33.4809L141.391 28.31L141.384 19.6212V15.855L141.582 15.8341C142.112 15.7853 143.903 15.7522 144.579 15.7406L145.822 15.7389C146.856 15.7488 147.498 16.4687 147.897 16.9834C148.12 17.2779 148.193 17.597 148.193 17.597C148.222 17.6959 148.344 17.7187 148.373 17.6035C148.386 17.5565 148.385 17.5035 148.384 17.419L148.384 17.418V17.4178V17.4175V17.4172V17.4168C148.383 17.3859 148.383 17.3508 148.383 17.3102ZM111.414 14.1218C110.956 14.2458 110.237 14.3415 109.77 14.3415H96.1199C95.6525 14.3415 94.9356 14.2458 94.4735 14.1218C94.302 14.0898 94.3274 14.2083 94.3274 14.2083L94.321 17.3103L94.3208 17.3754C94.3204 17.4862 94.3202 17.549 94.3339 17.6036C94.3607 17.7199 94.4823 17.6972 94.5156 17.5971C94.5156 17.5971 94.5886 17.278 94.8128 16.9834C95.2045 16.4688 95.8484 15.7493 96.8854 15.739L98.1325 15.7407L98.4463 15.7465C99.2984 15.762 100.924 15.7917 101.389 15.8342L101.589 15.855V19.6213V28.3101V33.4809C101.589 35.9976 99.5534 36.4654 99.5534 36.4654C99.4677 36.4916 99.4127 36.5981 99.5502 36.6383C99.6131 36.6604 99.7168 36.6604 99.8651 36.6604H106.299C106.451 36.6604 106.552 36.6604 106.614 36.6383C106.751 36.5981 106.697 36.4916 106.61 36.4654C106.61 36.4654 104.577 35.9976 104.577 33.4809L104.576 28.3101L104.571 19.6213L104.57 15.855L104.766 15.8342C105.296 15.7854 107.087 15.7523 107.758 15.7407L109.008 15.739C110.043 15.7489 110.683 16.4688 111.08 16.9834C111.305 17.278 111.374 17.5971 111.374 17.5971C111.41 17.696 111.53 17.7188 111.557 17.6036C111.572 17.5447 111.572 17.4764 111.572 17.3488V17.3487V17.3486V17.3486V17.3485V17.3484L111.572 17.3103L111.565 14.2083C111.565 14.2083 111.591 14.0898 111.415 14.1218H111.414ZM55.5648 26.2963C55.5745 26.3061 54.1413 26.3235 52.3794 26.2314L52.3746 19.6222L52.3732 18.943C52.3732 18.5564 52.4193 16.0618 52.4924 15.748C53.2865 15.6499 54.5074 15.6611 55.4339 15.6697H55.4339H55.4339H55.4339C55.668 15.6718 55.8833 15.6738 56.0682 15.6738C59.256 15.6738 60.635 17.3813 61.0099 19.6268H61.0114C61.0867 20.088 61.1214 20.5677 61.1214 21.0631C61.1214 23.9565 59.8782 26.2962 55.565 26.2962L55.5648 26.2963ZM56.3739 14.3135C60.9419 14.3135 63.1683 16.6319 63.6753 19.6221L63.6753 19.6274C63.7521 20.0802 63.7892 20.5501 63.7892 21.0299C63.7892 24.7073 61.6129 27.7851 56.1038 27.7851C56.1038 27.7851 53.7955 27.7643 52.4333 27.6696V28.3115V33.8258C52.4333 36.3435 54.4662 36.485 54.4662 36.485C54.556 36.5059 54.6071 36.6151 54.4727 36.6567C54.4076 36.6785 54.3051 36.6801 54.1552 36.6801H47.7822C47.6323 36.6801 47.5299 36.6775 47.4697 36.6567C47.3295 36.6151 47.3858 36.5059 47.4729 36.485C47.4729 36.485 49.5059 36.3435 49.5059 33.8258V28.3115V19.6227V17.1834C49.5059 14.665 47.4729 14.5248 47.4729 14.5248C47.3864 14.5021 47.3301 14.3946 47.4697 14.3531C47.5298 14.3315 47.6323 14.3299 47.7822 14.3299L56.3739 14.3135ZM71.3583 19.6208V17.1856C71.3583 14.6689 73.3951 14.5268 73.3951 14.5268C73.4834 14.504 73.5347 14.398 73.3967 14.3552C73.3342 14.3367 73.2317 14.3342 73.0818 14.3342H66.9186C66.769 14.3342 66.6666 14.3358 66.6051 14.3552C66.4667 14.3979 66.5206 14.5041 66.6063 14.5268C66.6063 14.5268 68.6419 14.6689 68.6419 17.1856V19.6208V28.3097V33.8291C68.6419 36.3507 66.6063 36.4912 66.6063 36.4912C66.5206 36.5118 66.4667 36.6172 66.6051 36.66C66.6666 36.6808 66.7689 36.6808 66.9186 36.6808H73.0818C73.2317 36.6808 73.3342 36.6808 73.3967 36.66C73.5339 36.6172 73.4826 36.5118 73.3951 36.4912C73.3951 36.4912 71.3583 36.3508 71.3583 33.8291V28.3097V19.6208ZM128.156 33.9407C128.42 33.6601 128.575 33.3037 128.575 33.3037L128.576 33.3062C128.61 33.2037 128.736 33.1815 128.765 33.2997C128.777 33.3495 128.776 33.4076 128.775 33.5015C128.775 33.5323 128.774 33.567 128.774 33.6065L128.771 36.5129C128.771 36.5129 128.774 36.6728 128.639 36.6728L124.043 36.6745H114.386C114.236 36.6745 114.133 36.6722 114.07 36.6537C113.933 36.6107 113.988 36.5042 114.076 36.4806C114.076 36.4806 116.107 36.0128 116.107 33.4922V28.3097V19.6209V17.5165C116.107 14.9979 114.07 14.5308 114.07 14.5308C113.988 14.5072 113.93 14.402 114.069 14.3598C114.129 14.3412 114.232 14.3363 114.382 14.3363L124.297 14.3429H126.491C126.959 14.3429 127.678 14.2474 128.136 14.1233C128.311 14.0901 128.285 14.2064 128.285 14.2064L128.288 17.3357C128.288 17.3688 128.288 17.3983 128.288 17.425C128.289 17.5196 128.289 17.5777 128.281 17.629C128.248 17.7417 128.128 17.7227 128.098 17.6241C128.098 17.6241 127.883 17.3048 127.658 17.008C127.26 16.4964 126.619 15.7836 125.586 15.7722C125.571 15.7722 125.507 15.7685 125.409 15.7627C125.104 15.7449 124.464 15.7075 123.871 15.7001C122.121 15.7105 120.331 15.79 119.31 15.8744L119.126 15.9022V19.6205V24.684H124.348C125.577 24.684 125.808 23.6717 125.808 23.6717C125.816 23.6301 125.871 23.6027 125.891 23.6717C125.899 23.7028 125.902 23.7523 125.902 23.8303V27.0241C125.902 27.0981 125.899 27.1501 125.891 27.1838C125.871 27.2492 125.816 27.222 125.808 27.1789C125.808 27.1789 125.577 26.1676 124.348 26.1676H119.126V28.3097V34.9793C119.126 34.9793 121.364 35.2445 123.821 35.2445C123.821 35.2445 125.209 35.2642 126.232 35.0065C127.399 34.7128 127.664 34.4841 128.156 33.9407Z" fill="#656565"/>
<path fill-rule="evenodd" clip-rule="evenodd" d="M21.4753 3.21377C21.3736 2.81241 21.0775 2.28033 20.825 2.04199C21.9539 1.53943 23.3224 1.75928 23.61 2.00199C22.5013 2.24594 21.8497 2.74731 21.4753 3.21372V3.21377ZM29.3193 4.57228C29.0356 4.83552 28.217 5.69247 27.6832 5.83963C27.3154 5.91674 27.446 5.66696 27.6006 5.49107C28.3941 4.60481 28.8661 3.82677 29.0383 3.43423C29.2541 2.96158 29.3508 1.88277 27.9873 2.05545C27.7248 2.08356 26.8899 2.28153 25.9543 2.93789C25.7409 3.08454 25.7446 2.89597 25.8049 2.76602C25.9556 2.43713 26.6813 1.8382 26.8382 1.70828C26.1917 1.18062 22.5051 -0.915572 18.5286 1.74844C18.0349 2.10704 17.5781 2.2225 17.3207 2.32249C17.151 2.37855 16.7243 2.62327 16.7191 3.31196C16.7349 3.44062 16.7644 3.52218 16.9439 3.48022C17.5215 3.31638 17.9497 3.00937 18.3315 2.87666C18.6554 2.73097 19.0095 2.95248 18.619 3.21377C18.1204 3.51194 17.6181 3.80951 17.3607 4.14723C17.2165 4.3207 16.6451 5.05336 17.4978 6.1645C17.7462 5.7529 18.5938 4.73411 19.8018 4.89334C20.9695 5.00032 22.3656 6.29702 22.1221 8.28701C22.0167 9.27206 21.0082 10.4219 19.6748 9.84088C19.2103 9.59993 18.9003 9.27707 18.6429 8.38379C18.3702 8.55205 17.9496 9.09939 18.2836 9.77462C18.3414 9.93027 18.3087 10.027 18.1606 10.1435C18.0076 10.239 17.9196 10.4627 18.0427 10.689C19.0748 12.5583 22.5505 11.7154 23.1543 9.02288C23.1985 8.87622 23.3816 8.85904 23.3765 9.11701C23.2937 12.5954 19.3033 14.3424 16.5284 11.3421C16.1957 11.012 15.8892 10.9955 15.4334 11.1108C14.9362 11.2618 13.378 11.6001 12.3219 11.4078C12.2843 12.0812 12.3314 13.8734 15.0104 14.5322C15.3556 14.6016 15.1334 14.7825 14.9962 14.8599C13.7292 15.565 12.7196 15.4785 11.9902 15.2178C12.2889 16.8789 13.9816 17.5907 15.1366 16.7203C16.2204 15.9252 16.9399 15.9871 17.2462 16.0889C17.4709 16.1724 17.5689 16.3577 17.2414 16.3979C16.5282 16.4793 15.5475 16.9311 15.1469 18.1826C14.7213 19.5162 14.091 20.0425 13.7494 20.1226C14.4539 20.3318 16.1779 20.2859 17.1322 19.7532C17.7938 19.3829 18.4279 18.2164 19.2893 18.2571C19.4213 18.2716 19.5039 18.2891 19.3054 18.4929C19.2051 18.5902 18.5283 19.2492 18.3111 20.2419C18.2508 20.5204 17.9696 21.8417 17.2928 22.2548C19.2629 22.9734 21.6912 21.8144 21.9274 18.9498C21.9473 18.7145 22.1057 18.5934 22.2036 18.9498C22.7724 21.0147 21.5996 23.1199 21.4552 23.3065C24.9207 22.9204 25.0137 20.535 24.9734 20.0558C24.9999 19.562 24.3432 17.4441 25.0287 16.8312C25.207 16.6687 25.359 16.7068 25.3087 17.0279C25.2194 17.5863 25.644 18.4541 25.8662 19.0434C26.4439 20.5744 25.7746 21.8417 25.2272 22.4899C25.595 22.3114 28.3612 21.1217 27.8626 18.6344C27.7559 18.1023 27.0578 17.0438 27.074 15.9071C27.0835 15.3307 27.4319 14.691 27.6191 14.5456C27.8163 14.3933 27.9518 14.5034 27.9091 14.7054C27.8439 14.9916 27.7572 16.0041 28.2419 16.7306C28.3812 16.937 28.8722 17.7112 28.9187 19.1287C30.7507 16.5731 29.9018 14.9916 29.4988 14.3884C28.0899 12.275 28.7026 10.9152 28.8597 10.5699C28.9664 10.3327 29.2099 10.285 29.2627 10.5328C29.3153 10.7793 29.2099 12.3812 30.4743 13.8473C30.8547 14.3712 30.7946 15.0013 30.8385 15.2854C33.4941 9.90272 29.7261 5.06661 29.3191 4.57228M39.0641 14.5139C38.312 15.6149 38.2241 15.5269 37.6967 16.512C37.0513 17.7112 36.6847 20.3745 38.0848 22.1871C38.3472 19.7538 40.3586 18.6879 40.9777 17.8169C41.6608 16.8573 41.3332 16.0182 41.0782 15.5422C40.7466 14.9227 40.9526 14.4368 41.0593 13.8919C41.3228 12.5583 41.1359 11.6714 40.851 10.9069C40.3071 9.45036 37.7332 8.09064 35.2848 10.3372C35.0561 10.6043 27.678 16.6706 31.3796 29.2405C31.9585 31.4247 30.8913 32.8468 29.9106 33.61C28.8935 34.4029 26.8668 34.8665 25.2873 33.7173C21.508 30.9621 23.0824 25.5986 24.3078 23.5194C24.0116 23.7821 22.6115 24.4734 19.8981 24.3716C20.1618 23.9993 20.6879 23.16 20.806 22.7938C18.3561 24.2937 16.1073 22.8172 15.7496 22.3567C16.317 22.0629 16.9299 21.7349 17.289 20.5886C16.6235 21.1658 13.954 21.7252 11.9374 20.4421C13.1152 19.8953 13.7105 19.0436 13.8587 18.688C13.3237 18.8836 9.4387 19.7801 5.37308 18.8691C3.79848 18.5242 3.41802 19.6687 3.33889 20.2873C2.59065 20.7212 2.10457 22.6001 3.86258 23.1111C3.86258 23.7693 4.38863 25.4203 6.80446 23.893C8.6238 22.6658 11.3738 22.4722 12.5992 22.525C11.8458 25.2075 12.3193 26.1659 15.4331 30.5901C16.518 32.1703 16.2921 34.2577 14.209 34.2577C13.7166 34.2577 3.81114 34.2577 3.81114 34.2577V37H37.9981V34.2577C37.9981 34.2577 33.5105 34.2577 33.0371 34.2577C35.2143 32.3131 34.0063 28.7692 33.7604 27.9789C30.5045 17.5678 34.9771 12.7267 36.4386 11.3863C38.4512 9.59327 41.1121 11.3506 39.0641 14.5141M13.8285 6.54495C15.1406 7.22502 16.6598 7.10455 17.5614 6.92745C19.8628 6.47428 20.4757 6.54495 20.9565 6.70499C21.4564 6.87123 21.4952 7.28726 21.4487 7.43062C21.4098 7.55109 21.3042 7.69063 20.944 7.64606C20.6364 7.60526 19.6834 7.43062 18.291 7.90467C15.3578 8.90197 14.1033 7.34528 13.8285 6.54495M27.2951 1.27435C26.8593 0.926589 26.1298 0.579231 25.4706 0.453749C26.6408 -0.519062 28.4968 0.22124 27.2951 1.27435M4.27184 25.0392C4.04334 24.992 3.43439 24.815 3.2862 24.1498C3.14929 24.4174 2.70356 26.4972 4.46395 26.4562C3.80731 26.1442 4.184 25.2264 4.27184 25.0392M2.99854 23.6494C2.7463 23.5954 2.24279 23.3794 2.18739 22.7798C1.99905 23.0583 0.74474 24.4722 2.32556 25.4063C2.08084 24.6772 2.54418 24.0237 2.99862 23.6494M2.11091 22.258C1.90495 21.9134 1.78329 21.5107 2.04824 20.9161C1.74554 21.0602 -0.334946 22.0566 0.811341 23.601C0.817672 22.6965 1.68284 22.3485 2.11096 22.258M2.61071 20.07C2.66594 19.7851 2.78895 19.2016 3.45449 18.8671C3.19829 18.847 0.571559 18.7805 0.972193 20.8519C1.23076 19.8795 2.31434 20.019 2.61071 20.07M7.87305 14.3354C9.12875 15.9788 10.5324 16.4447 12.038 17.1729C11.1064 16.4394 10.8967 14.944 10.8527 14.1388C11.3248 14.3529 12.0908 14.6109 13.0751 14.5886C11.7052 13.7347 11.4429 12.6789 11.3022 11.1823C10.2537 10.8536 9.58695 10.8612 7.01542 8.81141C5.17728 7.27722 3.58387 8.34058 3.68063 9.26379C3.44441 9.36964 2.06071 10.1245 3.0238 11.5728C2.87819 12.1151 3.16323 13.6965 4.90724 13.4875C5.35929 13.4923 6.68147 12.7994 7.87305 14.3354M2.32819 12.3476C2.21408 12.9847 2.67718 13.4825 2.86176 13.5622C2.75635 13.615 1.93389 14.0469 2.42611 14.8601C0.88929 14.0794 2.00294 12.6115 2.32814 12.3476M2.1762 11.7616C1.97282 11.5188 1.85095 11.0847 1.88735 10.651C1.56092 10.8267 -0.0022257 11.4282 1.00855 12.9542C0.778658 12.0788 1.8824 11.8055 2.1762 11.7616M2.86052 8.84073C1.49326 8.70323 0.167126 9.20776 0.414632 10.7534C0.678345 9.65631 1.77201 9.93661 2.02682 9.99143C2.24287 9.27905 2.63836 8.9867 2.86052 8.84073M3.26353 8.28134C3.76465 7.75188 4.19278 7.58041 4.62349 7.60028C4.21791 7.39829 2.25909 6.34116 1.73679 8.34439C2.35584 7.66011 3.14185 8.19147 3.26353 8.28126" fill="#990000"/>
</svg>
